<?xml version="1.0" encoding="utf-8"?>
<!-- Generator: Adobe Illustrator 27.0.0, SVG Export Plug-In . SVG Version: 6.00 Build 0)  -->
<svg version="1.1" id="Layer_1" xmlns="http://www.w3.org/2000/svg" xmlns:xlink="http://www.w3.org/1999/xlink" x="0px" y="0px"
	 viewBox="0 0 24 24" style="enable-background:new 0 0 24 24;" xml:space="preserve">
<style type="text/css">
	.st0{enable-background:new    ;}
</style>
<path class="st0" d="M4,10.5C4,9.7,3.3,9,2.5,9S1,9.7,1,10.5c0,0.4,0,2.6,0,3C1,14.3,1.7,15,2.5,15S4,14.3,4,13.5
	C4,13.1,4,10.9,4,10.5z"/>
<path class="st0" d="M14,9.5C14,8.7,13.3,8,12.5,8S11,8.7,11,9.5c0,0.4,0,4.6,0,5c0,0.8,0.7,1.5,1.5,1.5s1.5-0.7,1.5-1.5
	C14,14.1,14,9.9,14,9.5z"/>
<path class="st0" d="M24,10.5C24,9.7,23.3,9,22.5,9S21,9.7,21,10.5c0,0.4,0,2.6,0,3c0,0.8,0.7,1.5,1.5,1.5s1.5-0.7,1.5-1.5
	C24,13.1,24,10.9,24,10.5z"/>
<path d="M19,3.5C19,2.7,18.3,2,17.5,2S16,2.7,16,3.5c0,0.4,0,16.6,0,17c0,0.8,0.7,1.5,1.5,1.5s1.5-0.7,1.5-1.5
	C19,20.1,19,3.9,19,3.5z"/>
<path d="M9,6.5C9,5.7,8.3,5,7.5,5S6,5.7,6,6.5c0,0.4,0,10.6,0,11C6,18.3,6.7,19,7.5,19S9,18.3,9,17.5C9,17.1,9,6.9,9,6.5z"/>
</svg>
