<?xml version="1.0" encoding="utf-8"?>
<!-- Generator: Adobe Illustrator 27.0.0, SVG Export Plug-In . SVG Version: 6.00 Build 0)  -->
<svg version="1.1" id="Layer_1" xmlns:serif="http://www.serif.com/"
	 xmlns="http://www.w3.org/2000/svg" xmlns:xlink="http://www.w3.org/1999/xlink" x="0px" y="0px" viewBox="0 0 24 24"
	 style="enable-background:new 0 0 24 24;" xml:space="preserve">
<style type="text/css">
	.st0{stroke:#000000;stroke-width:0.5;stroke-miterlimit:10;}
</style>
<path class="st0" d="M22.8,5.5c0-0.7-0.3-1.4-0.8-1.9C21.4,3,20.7,2.7,20,2.7c-3.8,0-12.2,0-16,0C3.3,2.7,2.6,3,2.1,3.6
	C1.5,4.1,1.2,4.8,1.2,5.5v10c0,1.5,1.2,2.8,2.8,2.8h1c0.1,0,0.2,0.1,0.2,0.2v0.9c0,0.7,0.4,1.3,1,1.6c0.6,0.3,1.3,0.2,1.9-0.2
	l3.1-2.5c0,0,0.1-0.1,0.2-0.1H20c0.7,0,1.4-0.3,1.9-0.8c0.5-0.5,0.8-1.2,0.8-1.9V5.5z M21.2,5.5v10c0,0.3-0.1,0.6-0.4,0.9
	c-0.2,0.2-0.6,0.4-0.9,0.4h-8.6c-0.4,0-0.8,0.1-1.1,0.4l-3.1,2.5c-0.1,0.1-0.2,0.1-0.3,0c-0.1,0-0.1-0.1-0.1-0.2v-0.9
	c0-1-0.8-1.8-1.8-1.8H4c-0.7,0-1.2-0.6-1.2-1.2v-10c0-0.3,0.1-0.6,0.4-0.9C3.4,4.4,3.7,4.2,4,4.2h16c0.3,0,0.6,0.1,0.9,0.4
	C21.1,4.9,21.2,5.2,21.2,5.5z"/>
<path d="M13.1,12.9c-0.3-0.4-0.7-1.1-0.6-2.4c0.2-2,2.4-3,2.4-3l0.4,0.6c0,0-1.2,0.7-1.1,2.2c0.1,0,0.1,0,0.2,0
	c0.9,0,1.6,0.7,1.6,1.6c0,0.9-0.7,1.6-1.6,1.6c-0.2,0-0.5-0.1-0.7-0.1C13.7,13.4,13.2,13.1,13.1,12.9z"/>
<path d="M8.6,12.9c-0.3-0.4-0.7-1.1-0.6-2.4c0.2-2,2.4-3,2.4-3l0.4,0.6c0,0-1.2,0.7-1.1,2.2c0.1,0,0.1,0,0.2,0
	c0.9,0,1.6,0.7,1.6,1.6c0,0.9-0.7,1.6-1.6,1.6c-0.2,0-0.5-0.1-0.7-0.1C9.2,13.4,8.7,13.1,8.6,12.9z"/>
</svg>
