<svg width="24" height="24" viewBox="0 0 24 24" fill="none" xmlns="http://www.w3.org/2000/svg">
<path d="M11.981 8.01826C11.4667 8.01826 10.8952 8.12785 10.2857 8.32877C10.1143 8.38356 10 8.40183 9.9619 8.40183C9.82857 8.40183 9.67619 8.27397 9.50476 8H9.31429L9.18095 10.5571H9.39048C9.48571 9.95434 9.79048 9.44292 10.2857 9.02283C10.781 8.58447 11.3714 8.38356 12 8.38356C12.8571 8.38356 13.5048 8.74886 13.981 9.47945C14.3619 10.0639 14.5714 10.7945 14.6476 11.6712H8.0381C8 11.8174 8 11.9269 8 12C8 13.1142 8.38095 14.0457 9.12381 14.8311C9.86667 15.5982 10.819 16 11.981 16C13.1429 16 14.1143 15.6164 14.8762 14.8493C15.619 14.1005 16 13.1507 16 12.0183C16 11.1963 15.8095 10.5023 15.4095 9.89954C14.5714 8.65753 13.4095 8.01826 11.981 8.01826ZM14 14.411C13.5048 15.1963 12.8381 15.5982 12 15.5982C11.181 15.5982 10.5143 15.1963 10.019 14.411C9.58095 13.7352 9.37143 12.968 9.37143 12.1461H14.6476C14.6286 12.968 14.419 13.7352 14 14.411Z" fill="#999999"/>
<rect x="0.5" y="0.5" width="23" height="23" rx="4.5" stroke="#999999"/>
</svg>
