<svg xmlns="http://www.w3.org/2000/svg"  viewBox="0 0 72 72" width="64px" height="64px"><path d="M47,12c6.186,0,16,4.887,16,18c0,8.24-4.44,13.511-10.239,19.54c-4.844,5.046-11.983,9.887-12.285,10.09	C39.124,60.543,37.562,61,36,61s-3.124-0.457-4.477-1.37c-0.302-0.204-7.441-5.044-12.279-10.085C13.44,43.511,9,38.24,9,30	c0-13.113,9.814-18,16-18c3.901,0,7.647,1.286,11,3.75C39.353,13.286,43.099,12,47,12z M46.99,44C52.53,38.24,55,34.89,55,30	c0-8.47-6-10-8-10c-3.49,0-6.24,1.91-8.12,3.81c-0.795,0.815-1.837,1.222-2.88,1.222s-2.085-0.407-2.88-1.222	C31.24,21.91,28.49,20,25,20c-2,0-8,1.53-8,10c0,4.89,2.47,8.24,8.01,14C29.32,48.49,36,53,36,53S42.68,48.49,46.99,44z"/></svg>