<?xml version="1.0" encoding="utf-8"?>
<!-- Generator: Adobe Illustrator 27.0.0, SVG Export Plug-In . SVG Version: 6.00 Build 0)  -->
<svg version="1.1" id="Layer_1" xmlns="http://www.w3.org/2000/svg" xmlns:xlink="http://www.w3.org/1999/xlink" x="0px" y="0px"
	 viewBox="0 0 64 64" style="enable-background:new 0 0 64 64;" xml:space="preserve">
<style type="text/css">
	.st0{fill:#231F20;}
</style>
<path class="st0" d="M41.8,10.7c5.5,0,14.2,4.3,14.2,16c0,7.3-3.9,12-9.1,17.4c-4.3,4.5-10.7,8.8-10.9,9c-1.2,0.8-2.6,1.2-4,1.2
	c-1.4,0-2.8-0.4-4-1.2c-0.3-0.2-6.6-4.5-10.9-9C11.9,38.7,8,34,8,26.7c0-11.7,8.7-16,14.2-16c3.5,0,6.8,1.1,9.8,3.3
	C35,11.8,38.3,10.7,41.8,10.7z M41.8,39.1c4.9-5.1,7.1-8.1,7.1-12.4c0-7.5-5.3-8.9-7.1-8.9c-3.1,0-5.5,1.7-7.2,3.4
	c-0.7,0.7-1.6,1.1-2.6,1.1c-0.9,0-1.9-0.4-2.6-1.1c-1.7-1.7-4.1-3.4-7.2-3.4c-1.8,0-7.1,1.4-7.1,8.9c0,4.3,2.2,7.3,7.1,12.4
	c3.8,4,9.8,8,9.8,8S37.9,43.1,41.8,39.1z"/>
<ellipse class="st0" cx="25.7" cy="30.2" rx="14" ry="13.6"/>
<ellipse class="st0" cx="37.8" cy="28.7" rx="14" ry="13.6"/>
<ellipse class="st0" cx="30.5" cy="35.9" rx="14" ry="13.6"/>
</svg>
