<?xml version="1.0" encoding="utf-8"?>
<!-- Generator: Adobe Illustrator 27.0.0, SVG Export Plug-In . SVG Version: 6.00 Build 0)  -->
<svg version="1.1" id="Layer_1" xmlns="http://www.w3.org/2000/svg" xmlns:xlink="http://www.w3.org/1999/xlink" x="0px" y="0px"
	 viewBox="0 0 24 24" style="enable-background:new 0 0 24 24;" xml:space="preserve">
<path d="M9,10.5C9,9.7,8.3,9,7.5,9S6,9.7,6,10.5c0,0.4,0,2.6,0,3C6,14.3,6.7,15,7.5,15S9,14.3,9,13.5C9,13.1,9,10.9,9,10.5z"/>
<path d="M14,9.5C14,8.7,13.3,8,12.5,8S11,8.7,11,9.5c0,0.4,0,4.6,0,5c0,0.8,0.7,1.5,1.5,1.5s1.5-0.7,1.5-1.5C14,14.1,14,9.9,14,9.5z
	"/>
<path d="M24,3.5C24,2.7,23.3,2,22.5,2S21,2.7,21,3.5c0,0.4,0,16.6,0,17c0,0.8,0.7,1.5,1.5,1.5s1.5-0.7,1.5-1.5
	C24,20.1,24,3.9,24,3.5z"/>
<path d="M4,6.5C4,5.7,3.3,5,2.5,5S1,5.7,1,6.5c0,0.4,0,10.6,0,11C1,18.3,1.7,19,2.5,19S4,18.3,4,17.5C4,17.1,4,6.9,4,6.5z"/>
<path d="M19,6.5C19,5.7,18.3,5,17.5,5S16,5.7,16,6.5c0,0.4,0,10.6,0,11c0,0.8,0.7,1.5,1.5,1.5s1.5-0.7,1.5-1.5
	C19,17.1,19,6.9,19,6.5z"/>
</svg>
