<?xml version="1.0" encoding="utf-8"?>
<!-- Generator: Adobe Illustrator 27.0.0, SVG Export Plug-In . SVG Version: 6.00 Build 0)  -->
<svg version="1.1" id="Layer_1" xmlns="http://www.w3.org/2000/svg" xmlns:xlink="http://www.w3.org/1999/xlink" x="0px" y="0px"
	 viewBox="0 0 24 24" style="enable-background:new 0 0 24 24;" xml:space="preserve">
<style type="text/css">
	.st0{fill:none;stroke:#000000;stroke-width:1.5;stroke-linecap:round;stroke-linejoin:round;}
	.st1{fill:none;stroke:#000000;stroke-width:2;stroke-linecap:round;stroke-linejoin:round;}
</style>
<g>
	<path class="st0" d="M3.9,14.2C1,11.4,1,6.8,3.9,4"/>
	<path class="st0" d="M20.1,4c2.8,2.8,2.8,7.4,0,10.3"/>
	<path class="st0" d="M18,6.1c1.7,1.7,1.7,4.4,0,6"/>
	<path class="st0" d="M6,12.1c-1.7-1.7-1.7-4.4,0-6"/>
	<path class="st1" d="M6.9,20h10.5c1.4,0,1.8-0.9,1.4-1.8C17.9,16.8,16.1,15,12,15s-6,1.8-6.9,3.2C4.7,19.1,5.6,20,6.9,20z"/>
	<circle class="st1" cx="11.9" cy="9.1" r="3"/>
</g>
</svg>
