<?xml version="1.0" encoding="utf-8"?>
<!-- Generator: Adobe Illustrator 27.0.0, SVG Export Plug-In . SVG Version: 6.00 Build 0)  -->
<svg xmlns="http://www.w3.org/2000/svg" 
	 width="36" height="36">
<path d="M32,25.6c0,0.6-0.8,0.8-1.4,0.8l-9.6-3l-2.2,9.8v0.2l-0.2,0.4C18.4,34,18.2,34,18,34h-0.2c-0.4,0-0.6-0.4-0.8-0.8l-2.2-9.8
	l-9.6,3C4.8,26.6,4,26.2,4,25.6v-0.2c0-0.2,0.2-0.4,0.2-0.6l0.2-0.2l7.4-6.6l-7.4-6.8L4.2,11C4,10.8,4,10.8,4,10.4l0,0
	c0-0.6,0.8-0.8,1.2-0.8l9.6,3l2-9.8V2.6c0.4-0.2,0.6-0.6,1-0.6H18l0.4,0.2l0.2,0.4v0.2l2.2,9.8l9.6-3c0.6-0.2,1.4,0,1.4,0.8v0.2
	c0,0.2-0.2,0.4-0.2,0.6L24.2,18l7.4,6.8C31.8,25,32,25.2,32,25.6L32,25.6z"/>
</svg>
