<?xml version="1.0" encoding="utf-8"?>
<!-- Generator: Adobe Illustrator 27.0.0, SVG Export Plug-In . SVG Version: 6.00 Build 0)  -->
<svg version="1.1" id="Layer_1" xmlns="http://www.w3.org/2000/svg" xmlns:xlink="http://www.w3.org/1999/xlink" x="0px" y="0px"
	 viewBox="0 0 14 14" style="enable-background:new 0 0 14 14;" xml:space="preserve">
<style type="text/css">
	.st0{fill:none;stroke:#000000;stroke-width:0.5;stroke-miterlimit:10;}
	.st1{fill:none;stroke:#000000;stroke-width:0.25;stroke-linecap:round;stroke-linejoin:round;}
</style>
<circle class="st0" cx="7" cy="7" r="5"/>
<line class="st1" x1="10.6" y1="3.4" x2="11.8" y2="2.2"/>
<line class="st1" x1="11.8" y1="2.2" x2="11.1" y2="2.2"/>
<path class="st1" d="M7,13.6v-1.4l0,0l0,0l0,0V13.6C7,13.7,7,13.7,7,13.6L7,13.6C7,13.7,7,13.7,7,13.6z"/>
<path class="st1" d="M7.5,13.1h-1l0,0l0,0l0,0H7.5L7.5,13.1L7.5,13.1L7.5,13.1z"/>
<line class="st1" x1="11.8" y1="2.9" x2="11.8" y2="2.2"/>
<line class="st1" x1="3.5" y1="3.5" x2="2.3" y2="2.2"/>
<line class="st1" x1="2.3" y1="2.2" x2="3" y2="2.2"/>
<line class="st1" x1="2.3" y1="2.9" x2="2.3" y2="2.2"/>
<path class="st1" d="M3.2,2.5L2.5,3.2"/>
</svg>
