<?xml version="1.0" encoding="utf-8"?>
<!-- Generator: Adobe Illustrator 27.0.0, SVG Export Plug-In . SVG Version: 6.00 Build 0)  -->
<svg version="1.1" id="Layer_1" xmlns="http://www.w3.org/2000/svg" xmlns:xlink="http://www.w3.org/1999/xlink" x="0px" y="0px"
	 viewBox="0 0 14 14" style="enable-background:new 0 0 14 14;" xml:space="preserve">
<style type="text/css">
	.st0{fill:none;stroke:#000000;stroke-width:0.5;stroke-miterlimit:10;}
	.st1{fill:none;stroke:#000000;stroke-width:0.25;stroke-linecap:round;stroke-linejoin:round;}
</style>
<circle class="st0" cx="7" cy="7" r="5"/>
<path class="st1" d="M7,1.9V0.5l0,0l0,0l0,0V1.9C7,2,7,2,7,1.9L7,1.9C7,2,7,2,7,1.9z"/>
<path class="st1" d="M7.4,0.7L6.6,1.2l0,0l0,0l0,0L7.4,0.7L7.4,0.7L7.4,0.7L7.4,0.7z"/>
<path class="st1" d="M6.6,0.7l0.9,0.5l0,0l0,0l0,0L6.6,0.7L6.6,0.7L6.6,0.7L6.6,0.7z"/>
</svg>
