<?xml version="1.0" encoding="utf-8"?>
<!-- Generator: Adobe Illustrator 27.0.0, SVG Export Plug-In . SVG Version: 6.00 Build 0)  -->
<svg version="1.1"
	 id="Layer_1" xmlns:inkscape="http://www.inkscape.org/namespaces/inkscape" xmlns:dc="http://purl.org/dc/elements/1.1/" xmlns:sodipodi="http://sodipodi.sourceforge.net/DTD/sodipodi-0.dtd" xmlns:svg="http://www.w3.org/2000/svg" xmlns:cc="http://web.resource.org/cc/" xmlns:rdf="http://www.w3.org/1999/02/22-rdf-syntax-ns#"
	 xmlns="http://www.w3.org/2000/svg" xmlns:xlink="http://www.w3.org/1999/xlink" x="0px" y="0px" viewBox="0 0 48 48"
	 style="enable-background:new 0 0 48 48;" xml:space="preserve">
<style type="text/css">
	.st0{fill:#0A0B0C;}
</style>
<sodipodi:namedview  bordercolor="#666666" borderopacity="1.0" gridtolerance="10.0" guidetolerance="10.0" height="2300px" id="base" inkscape:current-layer="svg2" inkscape:cx="2328.5853" inkscape:cy="1773.8148" inkscape:pageopacity="0.0" inkscape:pageshadow="2" inkscape:showpageshadow="false" inkscape:window-height="1005" inkscape:window-width="1280" inkscape:window-x="-4" inkscape:window-y="-4" inkscape:zoom="0.09973684" objecttolerance="10.0" pagecolor="#ffffff" width="4000px">
	</sodipodi:namedview>
<path class="st0" d="M23.9,2.2c-2.7,0-5.7,0.6-8.9,1.7c-0.9,0.3-1.5,0.4-1.7,0.4c-0.7,0-1.5-0.7-2.4-2.2h-1l-0.7,14h1.1
	c0.5-3.3,2.1-6.1,4.7-8.4c2.6-2.4,5.7-3.5,9-3.5c4.5,0,7.9,2,10.4,6c2,3.2,3.1,7.2,3.5,12H3.2C3,23,3,23.6,3,24
	c0,6.1,2,11.2,5.9,15.5c3.9,4.2,8.9,6.4,15,6.4s11.2-2.1,15.2-6.3C43,35.5,45,30.3,45,24.1l0,0c0-4.5-1-8.3-3.1-11.6
	C37.5,5.7,31.4,2.2,23.9,2.2z M34.5,37.2c-2.6,4.3-6.1,6.5-10.5,6.5c-4.3,0-7.8-2.2-10.4-6.5c-2.3-3.7-3.4-7.9-3.4-12.4h27.7l0,0
	C37.8,29.3,36.7,33.5,34.5,37.2z"/>
</svg>
