<svg width="304" height="384" viewBox="0 0 304 384" fill="none" xmlns="http://www.w3.org/2000/svg">
<path d="M3.48779 17.4723C0 24.3175 1.45519e-10 33.2783 1.45519e-10 51.2V80H0.0596117C0.0649352 91.9879 0.0630701 105.082 0.0540152 119.283C0.0532255 120.471 0.0476656 121.647 0.0420869 122.826L0.0420768 122.828C0.0291804 125.554 0.0162004 128.297 0.0618384 131.254C0.10718 134.179 0.108929 140.241 0.0670752 149.439C0.00603894 162.996 0.00169836 176.493 0.0540152 189.929C0.0625347 192.166 0.0472066 194.392 0.0318606 196.62C0.00951169 199.864 -0.012875 203.114 0.0383048 206.414C0.0928779 209.984 0.081847 215.008 0.0697324 220.525L0.0697295 220.526C0.063263 223.472 0.0564892 226.557 0.05922 229.638C0.0836346 257.975 0.0644594 285.622 0.0016792 312.579C-0.00355248 314.334 0.00344353 316.079 0.0226264 317.815C0.0766871 322.988 0.0801532 328.288 0.033068 333.713C0.0156291 335.625 0.0112885 337.367 0.020008 338.941C0.0280644 340.416 0.0333571 341.921 0.0358871 343.457C0.168928 354.585 0.770026 361.198 3.48586 366.528C6.55381 372.549 11.4492 377.444 17.4704 380.512C22.5844 383.118 28.8792 383.777 39.2092 383.944C39.5275 383.939 39.8467 383.937 40.1679 383.945C42.2125 383.994 44.2825 383.973 46.3281 383.953L46.3921 383.952L46.4244 383.952C47.4844 383.941 48.5377 383.93 49.5771 383.929C60.8845 383.927 72.3733 383.931 84.0434 383.939C84.87 383.941 85.6879 383.941 86.4971 383.939C94.5521 383.922 102.585 383.925 110.594 383.947C116.527 383.963 121.25 383.899 124.764 383.756C125.981 383.706 127.55 383.293 129.47 382.519C132.253 381.397 134.532 379.566 136.305 377.027C136.718 376.438 137.082 375.741 137.452 375.03C137.775 374.412 138.104 373.783 138.474 373.207C140.497 370.065 143.222 367.905 146.651 366.725C149.661 365.691 152.704 365.547 155.78 366.294C159.648 367.23 162.675 369.315 164.86 372.547C165.237 373.105 165.629 373.773 166.037 374.551C166.55 375.53 166.915 376.186 167.133 376.519C169.465 380.107 172.723 382.399 176.908 383.395C177.412 383.514 178.079 383.627 178.91 383.735C179.523 383.816 180.196 383.861 180.926 383.871C186.06 383.939 191.194 383.968 196.328 383.958C203.334 383.944 210.527 383.936 217.909 383.934C217.922 383.934 217.935 383.936 217.946 383.939C217.96 383.943 217.973 383.949 217.985 383.958C218.004 383.973 218.026 383.981 218.048 383.981C223.789 383.915 229.432 383.921 234.977 384H235.027C235.184 383.999 235.333 383.978 235.472 383.937C235.496 383.93 235.522 383.929 235.548 383.934L235.557 383.937C235.563 383.941 235.566 383.947 235.566 383.955C235.566 383.969 235.573 383.976 235.587 383.976C240.643 383.955 245.697 383.939 250.751 383.929C250.818 383.929 250.874 383.944 250.93 383.96C250.984 383.974 251.038 383.989 251.102 383.989C255.676 383.976 260.236 383.961 264.782 383.944C275.127 383.778 281.428 383.12 286.546 380.512C292.567 377.444 297.463 372.549 300.531 366.528C303.41 360.878 303.912 353.786 304 341.403C303.997 340.141 303.995 338.879 303.994 337.617C303.994 337.519 303.984 337.429 303.974 337.337L303.972 337.322C303.963 337.235 303.953 337.144 303.952 337.044C303.865 324.245 303.851 312.821 303.91 302.77C303.921 300.98 303.92 299.235 303.907 297.534C303.826 285.833 303.807 274.168 303.853 262.538C303.859 260.804 303.846 259.019 303.833 257.215L303.833 257.176C303.814 254.654 303.796 252.097 303.829 249.589C303.845 248.497 303.841 247.407 303.819 246.318C303.794 245.149 303.788 244.058 303.8 243.045C303.826 240.793 303.839 238.525 303.837 236.242C303.83 227.564 303.832 219.071 303.842 210.762C303.849 206.15 303.844 201.67 303.826 197.321C303.788 188.008 303.776 178.589 303.79 169.063C303.792 168.414 303.792 167.76 303.792 167.1C303.784 138.066 303.781 109.033 303.782 80H304V51.2C304 33.2783 304 24.3175 300.512 17.4723C297.444 11.4511 292.549 6.55574 286.528 3.48779C279.683 0 270.722 0 252.8 0H51.2C33.2783 0 24.3175 0 17.4723 3.48779C11.4511 6.55574 6.55574 11.4511 3.48779 17.4723Z" fill="black"/>
</svg>
