<svg width="304" height="400" viewBox="0 0 304 400" fill="none" xmlns="http://www.w3.org/2000/svg">

<path d="M3.48779 17.4723C0 24.3175 0 33.2783 0 51.2V96H0.0596117C0.0649352 107.988 0.0630701 121.082 0.0540152 135.283C0.0532255 136.471 0.0476656 137.647 0.0420869 138.826L0.0420768 138.828C0.0291804 141.554 0.0162004 144.297 0.0618384 147.254C0.10718 150.179 0.108929 156.241 0.0670752 165.439C0.00603894 178.996 0.00169836 192.493 0.0540152 205.929C0.0625347 208.166 0.0472066 210.392 0.0318606 212.62C0.00951169 215.864 -0.012875 219.114 0.0383048 222.414C0.0928779 225.984 0.081847 231.008 0.0697324 236.525L0.0697295 236.526C0.063263 239.472 0.0564892 242.557 0.05922 245.638C0.0836346 273.975 0.0644594 301.622 0.0016792 328.579C-0.00355248 330.334 0.00344353 332.079 0.0226264 333.815C0.0766871 338.988 0.0801532 344.288 0.033068 349.713C0.0156291 351.625 0.0112885 353.367 0.020008 354.941C0.0280644 356.416 0.0333571 357.921 0.0358871 359.457C0.168928 370.585 0.770026 377.198 3.48586 382.528C6.55381 388.549 11.4492 393.444 17.4704 396.512C22.5844 399.118 28.8792 399.777 39.2092 399.944C39.5275 399.939 39.8467 399.937 40.1679 399.945C42.2117 399.994 44.281 399.973 46.3258 399.953H46.3281L46.3921 399.952L46.4244 399.952C47.4844 399.941 48.5377 399.93 49.5771 399.929C60.8845 399.927 72.3733 399.931 84.0434 399.939C84.87 399.941 85.6879 399.941 86.4971 399.939C94.5521 399.922 102.585 399.925 110.594 399.947C116.527 399.963 121.25 399.899 124.764 399.756C125.981 399.706 127.55 399.293 129.47 398.519C132.253 397.397 134.532 395.566 136.305 393.027C136.718 392.438 137.082 391.741 137.452 391.03C137.775 390.412 138.104 389.783 138.474 389.207C140.497 386.065 143.222 383.905 146.651 382.725C149.661 381.691 152.704 381.547 155.78 382.294C159.648 383.23 162.675 385.315 164.86 388.547C165.237 389.105 165.629 389.773 166.037 390.551C166.55 391.53 166.915 392.186 167.133 392.519C169.465 396.107 172.723 398.399 176.908 399.395C177.412 399.514 178.079 399.627 178.91 399.735C179.523 399.816 180.196 399.861 180.926 399.871C186.06 399.939 191.194 399.968 196.328 399.958C203.334 399.944 210.527 399.936 217.909 399.934C217.922 399.934 217.935 399.936 217.946 399.939C217.953 399.941 217.96 399.944 217.966 399.947C217.973 399.95 217.979 399.954 217.985 399.958C218.004 399.973 218.026 399.981 218.048 399.981C223.789 399.915 229.432 399.921 234.977 400H235.027C235.184 399.999 235.333 399.978 235.472 399.937C235.484 399.934 235.496 399.932 235.509 399.931C235.522 399.93 235.535 399.931 235.548 399.934L235.557 399.937C235.563 399.941 235.566 399.947 235.566 399.955C235.566 399.969 235.573 399.976 235.587 399.976C240.643 399.955 245.697 399.939 250.751 399.929C250.818 399.929 250.874 399.944 250.93 399.96C250.984 399.974 251.038 399.989 251.102 399.989C255.676 399.976 260.236 399.961 264.782 399.944C275.127 399.778 281.428 399.12 286.546 396.512C292.567 393.444 297.463 388.549 300.531 382.528C303.41 376.878 303.912 369.786 304 357.403C303.997 356.141 303.995 354.879 303.994 353.617C303.994 353.519 303.984 353.429 303.974 353.337L303.972 353.322C303.963 353.235 303.953 353.144 303.952 353.044C303.865 340.245 303.851 328.821 303.91 318.77C303.921 316.98 303.92 315.235 303.907 313.534C303.826 301.833 303.807 290.168 303.853 278.538C303.859 276.804 303.846 275.019 303.833 273.215L303.833 273.176C303.814 270.654 303.796 268.097 303.829 265.589C303.845 264.497 303.841 263.407 303.819 262.318C303.794 261.149 303.788 260.058 303.8 259.045C303.826 256.793 303.839 254.525 303.837 252.242C303.83 243.564 303.832 235.071 303.842 226.762C303.849 222.15 303.844 217.67 303.826 213.321C303.788 204.008 303.776 194.589 303.79 185.063C303.792 184.424 303.792 183.779 303.792 183.129V183.1C303.784 154.066 303.781 125.033 303.782 96H304V51.2C304 33.2783 304 24.3175 300.512 17.4723C297.444 11.4511 292.549 6.55574 286.528 3.48779C279.683 0 270.722 0 252.8 0H51.2C33.2783 0 24.3175 0 17.4723 3.48779C11.4511 6.55574 6.55574 11.4511 3.48779 17.4723Z" fill="white"/>
</svg>
