<svg width="304" height="432" viewBox="0 0 304 432" fill="none" xmlns="http://www.w3.org/2000/svg">
<path d="M0 380.8C0 398.722 0 407.683 3.48779 414.528C6.55574 420.549 11.4511 425.444 17.4723 428.512C24.3175 432 33.2783 432 51.2 432H252.8C270.722 432 279.683 432 286.528 428.512C292.549 425.444 297.444 420.549 300.512 414.528C304 407.683 304 398.722 304 380.8V75H303.997C303.997 74.7989 303.998 74.5979 303.998 74.3969C304.004 72.5687 303.997 70.751 303.977 68.9427C303.923 63.5542 303.92 58.0333 303.967 52.3823C303.984 50.3906 303.989 48.576 303.98 46.9364C303.972 45.4 303.967 43.8323 303.964 42.2323C303.831 30.6406 303.23 23.7521 300.514 18.2C297.446 11.9281 292.551 6.82917 286.53 3.63334C281.416 0.91877 275.121 0.232283 264.791 0.0583331C264.473 0.0635465 264.153 0.0656128 263.832 0.057284C261.788 0.00577312 259.719 0.0276719 257.674 0.0493124L257.608 0.0500043L257.576 0.0503858C256.516 0.0617027 255.462 0.0729243 254.423 0.0739733C243.116 0.0760714 231.627 0.0718753 219.957 0.0635465C219.13 0.0614484 218.312 0.0614484 217.503 0.0635465C209.448 0.0812531 201.415 0.0781377 193.406 0.0552177C187.473 0.0385602 182.75 0.10519 179.236 0.254154C178.019 0.306225 176.45 0.736459 174.53 1.5427C171.747 2.71145 169.468 4.61874 167.695 7.26353C167.282 7.87706 166.918 8.60313 166.548 9.34375C166.225 9.98751 165.896 10.6427 165.526 11.2427C163.503 14.5156 160.778 16.7656 157.349 17.9948C154.339 19.0719 151.296 19.2219 148.22 18.4437C144.352 17.4687 141.325 15.2969 139.14 11.9302C138.763 11.3489 138.371 10.6531 137.963 9.84271C137.45 8.82292 137.085 8.13958 136.867 7.7927C134.535 4.05518 131.277 1.66772 127.092 0.63022C126.588 0.506274 125.921 0.388559 125.09 0.276057C124.477 0.191689 123.804 0.1448 123.074 0.134373C117.94 0.0635465 112.806 0.033315 107.672 0.0437419C100.666 0.0583331 93.473 0.0666618 86.091 0.0687599C86.078 0.0687599 86.065 0.0666618 86.054 0.0635465C86.04 0.0593821 86.027 0.0531197 86.015 0.0437419C85.996 0.0281016 85.974 0.0198046 85.952 0.0198046C80.211 0.0885646 74.568 0.0823021 69.023 0H68.973C68.816 0.00104904 68.667 0.02292 68.528 0.0656128C68.504 0.0728925 68.478 0.0739733 68.452 0.0687599L68.443 0.0656128C68.437 0.0614484 68.434 0.0552177 68.434 0.046889C68.434 0.0322978 68.427 0.0249863 68.413 0.0249863C63.357 0.0468572 58.303 0.0635465 53.249 0.0739733C53.182 0.0739733 53.126 0.0583331 53.07 0.0416756L53.0613 0.0393104C53.0102 0.0254443 52.9585 0.0114441 52.898 0.0114441C48.324 0.0249863 43.764 0.0406265 39.218 0.0583331C28.873 0.231234 22.572 0.916672 17.454 3.63334C11.433 6.82917 6.53699 11.9281 3.46899 18.2C0.589996 24.0854 0.0880127 31.4729 0 44.3719C0.00299072 45.6864 0.00500488 47.001 0.00601196 48.3156C0.00601196 48.416 0.015653 48.5082 0.0254878 48.6024L0.0276489 48.6231C0.0372009 48.714 0.0470581 48.8082 0.0480042 48.9125C0.109406 58.3214 0.134437 67.017 0.123117 75H0V380.8Z" fill="white"/>
</svg>
