<svg width="304" height="400" viewBox="0 0 304 400" fill="none" xmlns="http://www.w3.org/2000/svg">
<path d="M3.48779 381.8C0 374.669 1.45513e-10 365.335 1.4551e-10 346.667L1.45505e-10 316.667H0.0596117C0.0649352 304.179 0.0630701 290.539 0.0540152 275.747C0.0532255 274.509 0.0476656 273.285 0.0420869 272.056L0.0420768 272.054C0.0291804 269.215 0.0162004 266.357 0.0618384 263.277C0.10718 260.23 0.108929 253.916 0.0670752 244.334C0.00603894 230.213 0.00169836 216.153 0.0540152 202.157C0.0625347 199.827 0.0472066 197.508 0.0318606 195.188C0.00951169 191.808 -0.012875 188.423 0.0383048 184.985C0.0928779 181.267 0.081847 176.033 0.0697324 170.286L0.0697295 170.285C0.063263 167.217 0.0564892 164.003 0.05922 160.794C0.0836346 131.276 0.0644594 102.477 0.0016792 74.3969C-0.00355248 72.5687 0.00344353 70.751 0.0226264 68.9427C0.0766871 63.5542 0.0801532 58.0333 0.033068 52.3823C0.0156291 50.3906 0.0112885 48.5761 0.020008 46.9365C0.0280644 45.4 0.0333571 43.8323 0.0358871 42.2323C0.168928 30.6406 0.770026 23.7521 3.48586 18.2C6.55381 11.9281 11.4492 6.82918 17.4704 3.63336C22.5844 0.918785 28.8792 0.232299 39.2092 0.0583483C39.5275 0.0635618 39.8467 0.065628 40.1679 0.0572993C42.2125 0.00576909 44.2825 0.0277036 46.3281 0.049352L46.3921 0.0500196L46.4244 0.050401C47.4844 0.061718 48.5377 0.0729396 49.5771 0.0739886C60.8845 0.0760867 72.3733 0.0718905 84.0434 0.0635618C84.87 0.0614637 85.6879 0.0614637 86.4971 0.0635618C94.5521 0.0812683 102.585 0.078153 110.594 0.055233C116.527 0.0385755 121.25 0.105206 124.764 0.254169C125.981 0.30624 127.55 0.736474 129.47 1.54271C132.253 2.71147 134.532 4.61876 136.305 7.26355C136.718 7.87708 137.082 8.60314 137.452 9.34377C137.775 9.98753 138.104 10.6427 138.474 11.2427C140.497 14.5156 143.222 16.7656 146.651 17.9948C149.661 19.0719 152.704 19.2219 155.78 18.4438C159.648 17.4688 162.675 15.2969 164.86 11.9302C165.237 11.349 165.629 10.6532 166.037 9.84273C166.55 8.82293 166.915 8.13959 167.133 7.79271C169.465 4.0552 172.723 1.66774 176.908 0.630235C177.412 0.506289 178.079 0.388574 178.91 0.276072C179.523 0.191704 180.196 0.144815 180.926 0.134388C186.06 0.0635618 191.194 0.0333303 196.328 0.0437571C203.334 0.0583483 210.527 0.0666771 217.909 0.0687752C217.922 0.0687752 217.935 0.0666771 217.946 0.0635618C217.96 0.0593974 217.973 0.0531349 217.985 0.0437571C218.004 0.0281169 218.026 0.0198199 218.048 0.0198199C223.789 0.0885798 229.432 0.0823173 234.977 1.52588e-05H235.027C235.184 0.0010643 235.333 0.0229352 235.472 0.065628C235.496 0.0729078 235.522 0.0739886 235.548 0.0687752L235.557 0.065628C235.563 0.0614637 235.566 0.055233 235.566 0.0469042C235.566 0.032313 235.573 0.0250015 235.587 0.0250015C240.643 0.0468725 245.697 0.0635618 250.751 0.0739886C250.818 0.0739886 250.874 0.0583483 250.93 0.0416908C250.984 0.0270996 251.038 0.0114594 251.102 0.0114594C255.676 0.0250015 260.236 0.0406418 264.782 0.0583483C275.127 0.231249 281.428 0.916687 286.546 3.63336C292.567 6.82918 297.463 11.9281 300.531 18.2C303.41 24.0854 303.912 31.4729 304 44.3719C303.997 45.6864 303.995 47.0011 303.994 48.3156C303.994 48.4177 303.984 48.5115 303.974 48.6073L303.972 48.6231C303.963 48.714 303.953 48.8082 303.952 48.9125C303.865 62.2448 303.851 74.1448 303.91 84.6146C303.921 86.4792 303.92 88.2969 303.907 90.0688C303.826 102.257 303.807 114.408 303.853 126.523C303.859 128.33 303.846 130.189 303.833 132.067L303.833 132.108C303.814 134.735 303.796 137.399 303.829 140.011C303.845 141.149 303.841 142.284 303.819 143.419C303.794 144.636 303.788 145.773 303.8 146.828C303.826 149.174 303.839 151.536 303.837 153.915C303.83 162.954 303.832 171.801 303.842 180.456C303.849 185.26 303.844 189.927 303.826 194.457C303.788 204.158 303.776 213.97 303.79 223.893C303.792 224.569 303.792 225.25 303.792 225.938C303.784 256.181 303.781 286.424 303.782 316.667H304V346.667C304 365.335 304 374.669 300.512 381.8C297.444 388.072 292.549 393.171 286.528 396.367C279.683 400 270.722 400 252.8 400L51.2 400C33.2783 400 24.3175 400 17.4723 396.367C11.4511 393.171 6.55574 388.072 3.48779 381.8Z" fill="white"/>
</svg>
