<svg width="304" height="432" viewBox="0 0 304 432" fill="none" xmlns="http://www.w3.org/2000/svg">
<path d="M300.512 19.6563C304 27.3572 304 37.4381 304 57.6V90H303.94C303.935 103.486 303.937 118.217 303.946 134.193C303.947 135.53 303.952 136.852 303.958 138.179L303.958 138.182C303.971 141.248 303.984 144.334 303.938 147.661C303.893 150.951 303.891 157.771 303.933 168.119C303.994 183.371 303.998 198.555 303.946 213.67C303.937 216.187 303.953 218.691 303.968 221.197C303.99 224.847 304.013 228.503 303.962 232.216C303.907 236.232 303.918 241.884 303.93 248.091L303.93 248.092C303.937 251.406 303.944 254.877 303.941 258.343C303.916 290.222 303.936 321.325 303.998 351.651C304.004 353.626 303.997 355.589 303.977 357.542C303.923 363.362 303.92 369.324 303.967 375.427C303.984 377.578 303.989 379.538 303.98 381.309C303.972 382.968 303.967 384.661 303.964 386.389C303.831 398.908 303.23 406.348 300.514 412.344C297.446 419.118 292.551 424.625 286.53 428.076C281.416 431.008 275.121 431.749 264.791 431.937C264.472 431.931 264.153 431.929 263.832 431.938C261.788 431.994 259.717 431.97 257.672 431.947L257.608 431.946L257.576 431.946C256.516 431.933 255.462 431.921 254.423 431.92C243.116 431.918 231.627 431.922 219.957 431.931C219.13 431.934 218.312 431.934 217.503 431.931C209.448 431.912 201.415 431.916 193.406 431.94C187.473 431.958 182.75 431.886 179.236 431.726C178.019 431.669 176.45 431.205 174.53 430.334C171.747 429.072 169.468 427.012 167.695 424.155C167.282 423.493 166.918 422.709 166.548 421.909C166.225 421.213 165.896 420.506 165.526 419.858C163.503 416.323 160.778 413.893 157.349 412.566C154.339 411.402 151.296 411.24 148.22 412.081C144.352 413.134 141.325 415.479 139.14 419.115C138.763 419.743 138.371 420.495 137.963 421.37C137.45 422.471 137.085 423.209 136.867 423.584C134.535 427.62 131.277 430.199 127.092 431.319C126.588 431.453 125.921 431.58 125.09 431.702C124.477 431.793 123.804 431.844 123.074 431.855C117.94 431.931 112.806 431.964 107.672 431.953C100.666 431.937 93.473 431.928 86.091 431.926C86.078 431.926 86.065 431.928 86.054 431.931C86.04 431.936 86.027 431.943 86.015 431.953C85.996 431.97 85.974 431.979 85.952 431.979C80.211 431.904 74.568 431.911 69.023 432H68.973C68.816 431.999 68.667 431.975 68.528 431.929C68.504 431.921 68.478 431.92 68.452 431.926L68.443 431.929C68.437 431.934 68.434 431.94 68.434 431.949C68.434 431.965 68.427 431.973 68.413 431.973C63.357 431.949 58.303 431.931 53.249 431.92C53.182 431.92 53.126 431.937 53.07 431.955C53.016 431.971 52.962 431.988 52.898 431.988C48.324 431.973 43.764 431.956 39.218 431.937C28.873 431.75 22.572 431.01 17.454 428.076C11.433 424.625 6.53699 419.118 3.46899 412.344C0.589996 405.988 0.0880127 398.009 0 384.078C0.00299072 382.659 0.00500488 381.239 0.00601196 379.819C0.00601196 379.709 0.0159912 379.608 0.026001 379.504L0.0276489 379.487C0.0372009 379.389 0.0470581 379.287 0.0480042 379.175C0.13501 364.776 0.148987 351.924 0.0899963 340.616C0.07901 338.602 0.0799866 336.639 0.0929871 334.726C0.173981 321.562 0.192993 308.439 0.147003 295.355C0.141022 293.404 0.153809 291.396 0.166718 289.367L0.166992 289.323C0.186005 286.486 0.203979 283.609 0.17099 280.788C0.154999 279.559 0.158997 278.333 0.181 277.108C0.205994 275.793 0.212006 274.565 0.200012 273.426C0.174011 270.892 0.16098 268.341 0.162994 265.772C0.169983 256.01 0.167999 246.455 0.15799 237.107C0.151001 231.919 0.156006 226.879 0.174011 221.986C0.212006 211.509 0.223999 200.913 0.209991 190.196C0.207977 189.466 0.208008 188.73 0.208008 187.988C0.215973 155.324 0.219482 122.662 0.21756 90H0V57.6C0 37.4381 0 27.3572 3.48779 19.6563C6.55573 12.8825 11.4511 7.37521 17.4723 3.92377C24.3175 0 33.2783 0 51.2 0L252.8 0C270.722 0 279.683 0 286.528 3.92377C292.549 7.37521 297.444 12.8825 300.512 19.6563Z" fill="white"/>
<path d="M68.443 431.929C68.437 431.934 68.434 431.94 68.434 431.949C68.434 431.965 68.427 431.973 68.413 431.973C63.357 431.949 58.303 431.931 53.249 431.92C53.2207 431.92 53.1943 431.923 53.1691 431.928C53.1346 431.935 53.1023 431.945 53.07 431.955M68.443 431.929L0.21756 90C0.219482 122.662 0.215973 155.324 0.208008 187.988V188.02C0.208008 188.752 0.208008 189.477 0.209991 190.196C0.223999 200.913 0.212006 211.509 0.174011 221.986C0.156006 226.879 0.151001 231.919 0.15799 237.107C0.167999 246.455 0.169983 256.01 0.162994 265.772C0.16098 268.341 0.174011 270.892 0.200012 273.426C0.212006 274.565 0.205994 275.793 0.181 277.108C0.158997 278.333 0.154999 279.559 0.17099 280.788C0.203979 283.609 0.186005 286.486 0.166992 289.323L0.166718 289.367V289.372C0.153809 291.399 0.141022 293.406 0.147003 295.355C0.192993 308.439 0.173981 321.562 0.0929871 334.726C0.0799866 336.639 0.07901 338.602 0.0899963 340.616C0.148987 351.924 0.13501 364.776 0.0480042 379.174C0.0470581 379.287 0.0372009 379.389 0.0276489 379.487L0.026001 379.504L0.0254517 379.509C0.0156555 379.611 0.00601196 379.711 0.00601196 379.819C0.00500488 381.239 0.00299072 382.659 0 384.078C0.0880127 398.009 0.589996 405.988 3.46899 412.344C6.53699 419.118 11.433 424.625 17.454 428.076C22.572 431.01 28.873 431.75 39.218 431.937M68.443 431.929L68.452 431.926C68.478 431.92 68.504 431.921 68.528 431.929C68.55 431.936 68.5723 431.943 68.5948 431.949C68.7018 431.979 68.8142 431.995 68.9313 431.999M68.443 431.929L68.9313 431.999M53.07 431.955L53.0615 431.957C53.0103 431.972 52.9586 431.988 52.898 431.988M53.07 431.955L52.9299 431.475L52.923 431.477C52.9832 431.458 53.1017 431.42 53.249 431.42H53.2501C58.2454 431.431 63.2406 431.449 68.2377 431.472M53.07 431.955L52.9171 431.479L52.91 431.481L52.8953 431.485C52.8913 431.486 52.8882 431.487 52.8858 431.488M52.898 431.988C48.324 431.973 43.764 431.956 39.218 431.937M52.898 431.988L52.8996 431.488C52.895 431.488 52.8904 431.488 52.8858 431.488M52.898 431.988V431.488C52.8922 431.488 52.8875 431.488 52.8843 431.488C52.8805 431.489 52.879 431.489 52.8807 431.489C52.8817 431.489 52.8833 431.488 52.8858 431.488M39.218 431.937L39.227 431.437C39.2263 431.437 39.2255 431.437 39.2247 431.437C28.8766 431.25 22.6969 430.505 17.7027 427.642C11.7794 424.247 6.95236 418.823 3.92444 412.138C1.09686 405.895 0.588165 398.027 0.5 384.076C0.502991 382.657 0.505005 381.238 0.506012 379.819C0.506012 379.772 0.508453 379.726 0.512512 379.675C0.515503 379.637 0.519318 379.598 0.523682 379.552L0.52533 379.535L0.525757 379.531C0.535126 379.435 0.546875 379.314 0.547974 379.179L0.548004 379.178C0.63501 364.777 0.648987 351.923 0.589996 340.613C0.57901 338.602 0.579987 336.641 0.592987 334.729C0.673981 321.564 0.692993 308.439 0.647003 295.353C0.641022 293.409 0.653748 291.407 0.666626 289.381L0.666718 289.37L0.666992 289.326C0.686005 286.49 0.70401 283.609 0.670959 280.782V280.781C0.655029 279.558 0.658997 278.337 0.680908 277.117C0.705994 275.798 0.712036 274.565 0.699982 273.42C0.674011 270.889 0.66098 268.339 0.662994 265.773C0.669983 256.01 0.667999 246.455 0.65799 237.107C0.651001 231.919 0.656006 226.88 0.674011 221.988C0.712006 211.51 0.723999 200.913 0.709991 190.195V190.195C0.708008 189.476 0.708008 188.752 0.708008 188.02V187.988C0.715973 155.324 0.719482 122.662 0.71756 90L0.717529 89.5H0.5M39.218 431.937L0.5 89.5M0.5 89.5V57.6C0.5 47.5117 0.500305 39.9722 0.934662 33.9915C1.36871 28.0151 2.23413 23.6362 3.94327 19.8626C6.97113 13.1772 11.7975 7.75295 17.7209 4.35755C21.0564 2.4456 24.9282 1.47553 30.2282 0.988372C35.5361 0.500491 42.2299 0.5 51.2 0.5L252.8 0.5C261.77 0.5 268.464 0.500491 273.772 0.988372C279.072 1.47553 282.944 2.4456 286.279 4.35755C292.202 7.75295 297.029 13.1772 300.057 19.8626C301.766 23.6362 302.631 28.0151 303.065 33.9915C303.5 39.9722 303.5 47.5117 303.5 57.6V89.5H303.441L303.44 89.9998C303.435 103.486 303.437 118.218 303.446 134.194C303.447 135.531 303.452 136.854 303.458 138.181L303.458 138.181L303.458 138.184C303.471 141.251 303.484 144.333 303.438 147.654C303.393 150.95 303.391 157.774 303.433 168.121C303.494 183.371 303.498 198.554 303.446 213.668L303.846 213.67L303.446 213.668C303.437 216.188 303.453 218.694 303.468 221.201C303.491 224.851 303.513 228.502 303.462 232.209L303.962 232.216L303.462 232.209C303.407 236.229 303.418 241.884 303.43 248.088L303.43 248.092L303.43 248.093C303.437 251.407 303.444 254.878 303.441 258.342C303.416 290.222 303.436 321.325 303.498 351.652L303.498 351.653C303.504 353.625 303.497 355.586 303.477 357.537L303.477 357.537C303.423 363.36 303.42 369.325 303.467 375.431L303.928 375.427L303.467 375.431C303.484 377.58 303.489 379.538 303.48 381.306C303.472 382.965 303.467 384.658 303.464 386.386C303.331 398.916 302.725 406.251 300.059 412.138C297.031 418.823 292.204 424.247 286.281 427.642C281.292 430.502 275.12 431.249 264.79 431.437C264.472 431.431 264.147 431.429 263.818 431.438C261.785 431.494 259.725 431.47 257.678 431.447L257.614 431.446L257.614 431.446L257.582 431.446H257.581H257.578C256.52 431.433 255.465 431.421 254.423 431.42C243.115 431.418 231.626 431.422 219.956 431.431H219.955C219.13 431.434 218.313 431.434 217.504 431.431C209.448 431.412 201.414 431.416 193.404 431.44C187.475 431.458 182.761 431.386 179.259 431.226C178.136 431.174 176.635 430.739 174.737 429.879C172.053 428.661 169.846 426.673 168.12 423.892L168.119 423.891C167.726 423.26 167.375 422.505 167.002 421.699L167.001 421.698L167 421.696C166.679 421.005 166.342 420.279 165.96 419.61L165.96 419.61C163.886 415.987 161.077 413.473 157.53 412.099L157.529 412.099C154.421 410.898 151.269 410.73 148.088 411.598M0.5 89.5L264.791 431.937C264.472 431.931 264.153 431.929 263.832 431.938C261.788 431.994 259.719 431.97 257.674 431.947H257.672L257.608 431.946L257.576 431.946C256.516 431.933 255.462 431.921 254.423 431.92C243.116 431.918 231.627 431.922 219.957 431.931C219.13 431.934 218.312 431.934 217.503 431.931C209.448 431.912 201.415 431.916 193.406 431.94C187.473 431.958 182.75 431.886 179.236 431.726C178.019 431.669 176.45 431.205 174.53 430.334C171.747 429.072 169.468 427.012 167.695 424.155C167.282 423.493 166.918 422.709 166.548 421.909C166.225 421.214 165.896 420.506 165.526 419.858C163.503 416.323 160.778 413.893 157.349 412.566C154.339 411.402 151.296 411.24 148.22 412.081C144.352 413.134 141.325 415.479 139.14 419.115C138.763 419.743 138.371 420.495 137.963 421.37M148.088 411.598L148.219 412.077L148.089 411.598C148.089 411.598 148.088 411.598 148.088 411.598ZM148.088 411.598C144.088 412.687 140.958 415.119 138.711 418.858L139.104 419.094L138.711 418.858C138.323 419.505 137.923 420.272 137.51 421.159L137.963 421.37M137.963 421.37C137.45 422.471 137.085 423.209 136.867 423.584C134.535 427.62 131.277 430.199 127.092 431.319C126.588 431.453 125.921 431.58 125.09 431.702C124.477 431.793 123.804 431.844 123.074 431.855M137.963 421.37L137.51 421.159C136.996 422.263 136.64 422.98 136.435 423.332L136.434 423.334C134.163 427.265 131.009 429.753 126.963 430.836M126.963 430.836C126.963 430.836 126.963 430.836 126.964 430.836L127.091 431.317L126.963 430.836ZM126.963 430.836C126.485 430.963 125.839 431.087 125.018 431.207L125.016 431.207C124.429 431.295 123.779 431.344 123.067 431.355M123.067 431.355L123.074 431.855M123.067 431.355C117.935 431.431 112.804 431.464 107.673 431.453C100.667 431.437 93.4735 431.428 86.091 431.426C86.0231 431.426 85.9607 431.437 85.9078 431.453L85.9011 431.455C85.8819 431.461 85.8625 431.469 85.8431 431.477M123.067 431.355C123.066 431.355 123.066 431.355 123.066 431.355L123.074 431.855M123.074 431.855L85.8431 431.477M68.9313 431.999C68.9332 431.981 68.934 431.965 68.934 431.949C68.934 431.963 68.9335 431.98 68.9317 431.999C68.9454 432 68.9592 432 68.973 432M68.9313 431.999L52.8858 431.488M68.973 432V431.5H68.9766M68.973 432L68.9766 431.5M68.973 432H69.023M68.9766 431.5C68.8678 431.499 68.771 431.483 68.6854 431.455L68.6836 431.454C68.5708 431.417 68.4543 431.414 68.3462 431.437L68.31 431.445L68.2754 431.458L68.2664 431.461L68.2377 431.472M68.9766 431.5H69.0188M68.2377 431.472C68.2486 431.472 68.2596 431.472 68.2705 431.472C68.274 431.472 68.2774 431.472 68.2808 431.472C68.3052 431.473 68.3295 431.473 68.3539 431.473C68.3744 431.473 68.3949 431.473 68.4153 431.473L68.414 431.75L68.4137 431.824L68.4136 431.851L68.4134 431.89L68.413 431.949V431.889V431.85V431.822V431.746V431.473C68.3959 431.473 68.3762 431.474 68.3548 431.477C68.3338 431.48 68.3112 431.484 68.2876 431.49C68.2845 431.491 68.2814 431.492 68.2783 431.493C68.2393 431.504 68.1979 431.522 68.157 431.548C68.1219 431.57 68.0872 431.599 68.0549 431.635C67.9451 431.759 67.934 431.894 67.934 431.949C67.934 431.818 67.9852 431.647 68.143 431.529L68.1999 431.486L68.2377 431.472ZM69.0188 431.5C69.0175 431.5 69.0163 431.5 69.015 431.5L69.023 432M69.0188 431.5C74.5305 431.412 80.1386 431.404 85.8431 431.477M69.0188 431.5H69.023V432M69.023 432C74.568 431.911 80.211 431.904 85.952 431.979M85.8431 431.477C85.7921 431.499 85.7408 431.53 85.6924 431.571M85.8431 431.477C85.8649 431.477 85.8867 431.478 85.9084 431.478C85.9108 431.478 85.9131 431.478 85.9154 431.478C85.9297 431.478 85.9441 431.478 85.9585 431.479L85.9567 431.613L85.9565 431.628L85.9533 431.88L85.9532 431.883L85.952 431.979M85.8431 431.477L86.015 431.953C85.996 431.97 85.974 431.979 85.952 431.979M85.952 431.979V431.882V431.878V431.614V431.598V431.479C85.9397 431.479 85.9277 431.479 85.916 431.48C85.9138 431.48 85.9115 431.481 85.9093 431.481C85.8176 431.49 85.7437 431.528 85.6924 431.571M85.6924 431.571L85.6826 431.579C85.6858 431.576 85.6891 431.573 85.6924 431.571Z" stroke="black" stroke-opacity="0.05"/>
</svg>
