<svg width="304" height="400" viewBox="0 0 304 400" fill="none" xmlns="http://www.w3.org/2000/svg">
<path d="M3.48779 18.2003C0 25.3307 1.45513e-10 34.6649 1.4551e-10 53.3333L1.45505e-10 83.3333H0.0596117C0.0649352 95.8207 0.0630701 109.461 0.0540152 124.253C0.0532255 125.491 0.0476656 126.715 0.0420869 127.944L0.0420768 127.946C0.0291804 130.785 0.0162004 133.643 0.0618384 136.723C0.10718 139.77 0.108929 146.084 0.0670752 155.666C0.00603894 169.787 0.00169836 183.847 0.0540152 197.843C0.0625347 200.173 0.0472066 202.492 0.0318606 204.812C0.00951169 208.192 -0.012875 211.577 0.0383048 215.015C0.0928779 218.733 0.081847 223.967 0.0697324 229.714L0.0697295 229.715C0.063263 232.783 0.0564892 235.997 0.05922 239.206C0.0836346 268.724 0.0644594 297.523 0.0016792 325.603C-0.00355248 327.431 0.00344353 329.249 0.0226264 331.057C0.0766871 336.446 0.0801532 341.967 0.033068 347.618C0.0156291 349.609 0.0112885 351.424 0.020008 353.064C0.0280644 354.6 0.0333571 356.168 0.0358871 357.768C0.168928 369.359 0.770026 376.248 3.48586 381.8C6.55381 388.072 11.4492 393.171 17.4704 396.367C22.5844 399.081 28.8792 399.768 39.2092 399.942C39.5275 399.936 39.8467 399.934 40.1679 399.943C42.2125 399.994 44.2825 399.972 46.3281 399.951L46.3921 399.95L46.4244 399.95C47.4844 399.938 48.5377 399.927 49.5771 399.926C60.8845 399.924 72.3733 399.928 84.0434 399.936C84.87 399.939 85.6879 399.939 86.4971 399.936C94.5521 399.919 102.585 399.922 110.594 399.945C116.527 399.961 121.25 399.895 124.764 399.746C125.981 399.694 127.55 399.264 129.47 398.457C132.253 397.289 134.532 395.381 136.305 392.736C136.718 392.123 137.082 391.397 137.452 390.656C137.775 390.012 138.104 389.357 138.474 388.757C140.497 385.484 143.222 383.234 146.651 382.005C149.661 380.928 152.704 380.778 155.78 381.556C159.648 382.531 162.675 384.703 164.86 388.07C165.237 388.651 165.629 389.347 166.037 390.157C166.55 391.177 166.915 391.86 167.133 392.207C169.465 395.945 172.723 398.332 176.908 399.37C177.412 399.494 178.079 399.611 178.91 399.724C179.523 399.808 180.196 399.855 180.926 399.866C186.06 399.936 191.194 399.967 196.328 399.956C203.334 399.942 210.527 399.933 217.909 399.931C217.922 399.931 217.935 399.933 217.946 399.936C217.96 399.941 217.973 399.947 217.985 399.956C218.004 399.972 218.026 399.98 218.048 399.98C223.789 399.911 229.432 399.918 234.977 400H235.027C235.184 399.999 235.333 399.977 235.472 399.934C235.496 399.927 235.522 399.926 235.548 399.931L235.557 399.934C235.563 399.939 235.566 399.945 235.566 399.953C235.566 399.968 235.573 399.975 235.587 399.975C240.643 399.953 245.697 399.936 250.751 399.926C250.818 399.926 250.874 399.942 250.93 399.958C250.984 399.973 251.038 399.989 251.102 399.989C255.676 399.975 260.236 399.959 264.782 399.942C275.127 399.769 281.428 399.083 286.546 396.367C292.567 393.171 297.463 388.072 300.531 381.8C303.41 375.915 303.912 368.527 304 355.628C303.997 354.314 303.995 352.999 303.994 351.684C303.994 351.582 303.984 351.489 303.974 351.393L303.972 351.377C303.963 351.286 303.953 351.192 303.952 351.087C303.865 337.755 303.851 325.855 303.91 315.385C303.921 313.521 303.92 311.703 303.907 309.931C303.826 297.743 303.807 285.592 303.853 273.477C303.859 271.67 303.846 269.811 303.833 267.933L303.833 267.892C303.814 265.265 303.796 262.601 303.829 259.989C303.845 258.851 303.841 257.716 303.819 256.581C303.794 255.364 303.788 254.227 303.8 253.172C303.826 250.826 303.839 248.464 303.837 246.085C303.83 237.046 303.832 228.199 303.842 219.544C303.849 214.74 303.844 210.073 303.826 205.543C303.788 195.842 303.776 186.03 303.79 176.107C303.792 175.431 303.792 174.75 303.792 174.062C303.784 143.819 303.781 113.576 303.782 83.3333H304V53.3333C304 34.6649 304 25.3307 300.512 18.2003C297.444 11.9282 292.549 6.82889 286.528 3.63312C279.683 0 270.722 0 252.8 0L51.2 0C33.2783 0 24.3175 0 17.4723 3.63312C11.4511 6.82889 6.55574 11.9282 3.48779 18.2003Z" fill="white"/>
</svg>
