<svg width="306" height="402" viewBox="0 0 306 402" fill="none" xmlns="http://www.w3.org/2000/svg">
<path d="M301.512 382.8C305 375.669 305 366.335 305 347.667V317.667H304.94C304.935 305.179 304.937 291.539 304.946 276.747C304.947 275.509 304.952 274.285 304.958 273.056L304.958 273.054C304.971 270.215 304.984 267.357 304.938 264.277C304.893 261.23 304.891 254.916 304.933 245.334C304.994 231.213 304.998 217.153 304.946 203.157C304.937 200.827 304.953 198.508 304.968 196.188C304.99 192.808 305.013 189.423 304.962 185.985C304.907 182.267 304.918 177.033 304.93 171.286L304.93 171.285C304.937 168.217 304.944 165.003 304.941 161.794C304.916 132.276 304.936 103.477 304.998 75.3969C305.004 73.5687 304.997 71.751 304.977 69.9427C304.923 64.5542 304.92 59.0333 304.967 53.3823C304.984 51.3906 304.989 49.5761 304.98 47.9365C304.972 46.4 304.967 44.8323 304.964 43.2323C304.831 31.6406 304.23 24.7521 301.514 19.2C298.446 12.9281 293.551 7.82918 287.53 4.63336C282.416 1.91879 276.121 1.2323 265.791 1.05835C265.472 1.06356 265.153 1.06563 264.832 1.0573C262.788 1.00577 260.717 1.0277 258.672 1.04935L258.608 1.05002L258.576 1.0504C257.516 1.06172 256.462 1.07294 255.423 1.07399C244.116 1.07609 232.627 1.07189 220.957 1.06356C220.13 1.06146 219.312 1.06146 218.503 1.06356C210.448 1.08127 202.415 1.07815 194.406 1.05523C188.473 1.03858 183.75 1.10521 180.236 1.25417C179.019 1.30624 177.45 1.73647 175.53 2.54271C172.747 3.71147 170.468 5.61876 168.695 8.26355C168.282 8.87708 167.918 9.60314 167.548 10.3438C167.225 10.9875 166.896 11.6427 166.526 12.2427C164.503 15.5156 161.778 17.7656 158.349 18.9948C155.339 20.0719 152.296 20.2219 149.22 19.4438C145.352 18.4688 142.325 16.2969 140.14 12.9302C139.763 12.349 139.371 11.6532 138.963 10.8427C138.45 9.82293 138.085 9.13959 137.867 8.79271C135.535 5.0552 132.277 2.66774 128.092 1.63024C127.588 1.50629 126.921 1.38857 126.09 1.27607C125.477 1.1917 124.804 1.14481 124.074 1.13439C118.94 1.06356 113.806 1.03333 108.672 1.04376C101.666 1.05835 94.473 1.06668 87.091 1.06878C87.078 1.06878 87.065 1.06668 87.054 1.06356C87.04 1.0594 87.027 1.05313 87.015 1.04376C86.996 1.02812 86.974 1.01982 86.952 1.01982C81.211 1.08858 75.568 1.08232 70.023 1.00002H69.973C69.816 1.00106 69.667 1.02294 69.528 1.06563C69.504 1.07291 69.478 1.07399 69.452 1.06878L69.443 1.06563C69.437 1.06146 69.434 1.05523 69.434 1.0469C69.434 1.03231 69.427 1.025 69.413 1.025C64.357 1.04687 59.303 1.06356 54.249 1.07399C54.182 1.07399 54.126 1.05835 54.07 1.04169C54.016 1.0271 53.962 1.01146 53.898 1.01146C49.324 1.025 44.764 1.04064 40.218 1.05835C29.873 1.23125 23.572 1.91669 18.454 4.63336C12.433 7.82918 7.53699 12.9281 4.46899 19.2C1.59 25.0854 1.08801 32.4729 1 45.3719C1.00299 46.6864 1.005 48.0011 1.00601 49.3156C1.00601 49.4177 1.01599 49.5115 1.026 49.6073L1.02765 49.6231C1.0372 49.714 1.04706 49.8082 1.048 49.9125C1.13501 63.2448 1.14899 75.1448 1.09 85.6146C1.07901 87.4792 1.07999 89.2969 1.09299 91.0688C1.17398 103.257 1.19299 115.408 1.147 127.523C1.14102 129.33 1.15381 131.189 1.16672 133.067L1.16699 133.108C1.186 135.735 1.20398 138.399 1.17099 141.011C1.155 142.149 1.159 143.284 1.181 144.419C1.20599 145.636 1.21201 146.773 1.20001 147.828C1.17401 150.174 1.16098 152.536 1.16299 154.915C1.16998 163.954 1.168 172.801 1.15799 181.456C1.151 186.26 1.15601 190.927 1.17401 195.457C1.21201 205.158 1.224 214.97 1.20999 224.893C1.20798 225.569 1.20801 226.25 1.20801 226.938C1.21597 257.181 1.21948 287.424 1.21756 317.667H1V347.667C1 366.335 1 375.669 4.48779 382.8C7.55573 389.072 12.4511 394.171 18.4723 397.367C25.3175 401 34.2783 401 52.2 401L253.8 401C271.722 401 280.683 401 287.528 397.367C293.549 394.171 298.444 389.072 301.512 382.8Z" fill="white"/>
<path d="M305.5 317.167V317.667V347.667V347.69C305.5 357.004 305.5 364.021 305.062 369.599C304.624 375.187 303.745 379.374 301.961 383.019C298.848 389.384 293.879 394.562 287.762 397.809C284.256 399.67 280.229 400.587 274.86 401.044C269.503 401.5 262.765 401.5 253.825 401.5H253.8L52.2 401.5H52.1752C43.2353 401.5 36.4973 401.5 31.14 401.044C25.7714 400.587 21.7445 399.67 18.2379 397.809C12.1211 394.562 7.15173 389.384 4.03864 383.019C2.25543 379.374 1.37579 375.187 0.9375 369.599C0.5 364.021 0.5 357.005 0.5 347.69V347.667V317.667V317.167H0.71759C0.719452 287.091 0.715942 257.015 0.708008 226.937V226.907C0.708008 226.23 0.708008 225.558 0.709991 224.891C0.723999 214.969 0.712006 205.159 0.674011 195.459C0.656006 190.928 0.651001 186.261 0.65799 181.456C0.667999 172.801 0.669983 163.954 0.662994 154.915C0.66098 152.535 0.674011 150.17 0.700043 147.822C0.711975 146.773 0.705994 145.642 0.681091 144.429V144.428C0.658997 143.289 0.654938 142.148 0.671021 141.005C0.703949 138.398 0.686035 135.74 0.666992 133.112L0.666718 133.071C0.653809 131.193 0.641022 129.331 0.647003 127.521C0.692993 115.408 0.673981 103.259 0.592987 91.0724C0.579987 89.2982 0.57901 87.4783 0.589996 85.6118C0.648987 75.1445 0.63501 63.2466 0.548004 49.9158M305.5 317.167L1.048 49.9125M305.5 317.167H305.44M305.5 317.167H305.44M0.548004 49.9158L1.048 49.9125M0.548004 49.9158C0.548004 49.9162 0.548035 49.9166 0.548035 49.9171L1.048 49.9125M0.548004 49.9158C0.547241 49.8391 0.54007 49.7676 0.530396 49.6754L0.530334 49.6749L0.528717 49.6592L0.527527 49.648C0.518066 49.5576 0.506012 49.4426 0.506012 49.316C0.505005 48.0017 0.502991 46.6873 0.5 45.373V45.3685C0.587891 32.4908 1.0824 24.9852 4.01984 18.9803C7.13303 12.6161 12.103 7.43826 18.2196 4.19171C23.4557 1.41232 29.8701 0.731232 40.2096 0.558411L40.216 0.558319C44.7622 0.540649 49.3224 0.524994 53.8965 0.511475L53.898 0.511444C54.0401 0.511444 54.1596 0.547974 54.2004 0.55899L54.2126 0.562286C54.2375 0.569824 54.2497 0.572876 54.2544 0.573975M1.048 49.9125C1.04706 49.8082 1.0372 49.7141 1.02765 49.6231L1.026 49.6073C1.01599 49.5114 1.00601 49.4177 1.00601 49.3156C1.005 48.0011 1.00299 46.6865 1 45.3719C1.08801 32.4729 1.59 25.0854 4.46899 19.2C7.53699 12.9281 12.433 7.82919 18.454 4.63336C23.572 1.91669 29.873 1.23126 40.218 1.05835C44.764 1.04065 49.324 1.02499 53.898 1.01144C53.9585 1.01144 54.0101 1.02542 54.0611 1.03931L54.07 1.04169C54.126 1.05835 54.182 1.07397 54.249 1.07397M54.2544 0.573975C54.2523 0.573975 54.2501 0.573975 54.248 0.573975L54.249 1.07397M54.2544 0.573975C59.3058 0.563568 64.3573 0.546875 69.4108 0.524994H69.413C69.4501 0.524994 69.4988 0.529175 69.5523 0.54364M54.2544 0.573975C54.2561 0.574371 54.2568 0.574524 54.2568 0.574524C54.2568 0.574554 54.2534 0.573975 54.249 0.573975V1.07397M54.249 1.07397C59.303 1.06357 64.357 1.04687 69.413 1.02499C69.427 1.02499 69.434 1.03232 69.434 1.04691C69.434 1.05524 69.437 1.06146 69.443 1.06561M158.349 18.9948C155.339 20.0719 152.296 20.2219 149.22 19.4438M158.349 18.9948C161.778 17.7657 164.503 15.5156 166.526 12.2427C166.896 11.6427 167.225 10.9875 167.548 10.3438M158.349 18.9948L158.18 18.5241C158.18 18.5241 158.18 18.524 158.181 18.524C161.497 17.3353 164.134 15.1622 166.101 11.9798C166.457 11.402 166.776 10.7672 167.101 10.1203M158.349 18.9948L167.101 10.1203M149.22 19.4438L1 317.667V318.167V347.667C1 366.335 1 375.669 4.48779 382.8C7.55573 389.072 12.4511 394.171 18.4723 397.367C25.3175 401 34.2783 401 52.2 401L253.8 401C271.722 401 280.683 401 287.528 397.367C293.549 394.171 298.444 389.072 301.512 382.8C305 375.669 305 366.335 305 347.667V318.167V317.667L305.44 317.666C305.44 317.5 305.44 317.333 305.44 317.167M149.22 19.4438C145.352 18.4688 142.325 16.2969 140.14 12.9302M149.22 19.4438L140.14 12.9302M167.548 10.3438C167.918 9.60315 168.282 8.87708 168.695 8.26355M167.548 10.3438L167.101 10.1195C167.101 10.1198 167.101 10.1201 167.101 10.1203M167.548 10.3438L167.101 10.1203M168.695 8.26355C170.468 5.61874 172.747 3.71146 175.53 2.54272C177.45 1.73648 179.019 1.30624 180.236 1.25418M168.695 8.26355L168.28 7.98514C170.104 5.26376 172.458 3.29047 175.336 2.0817C177.278 1.26651 178.911 0.810425 180.215 0.754639L180.236 1.25418M168.695 8.26355L220.958 0.563568M180.236 1.25418C183.75 1.10519 188.473 1.03857 194.406 1.05524C202.415 1.07816 210.448 1.08127 218.503 1.06357C219.312 1.06146 220.13 1.06146 220.957 1.06357M180.236 1.25418L180.215 0.754608C183.74 0.605194 188.471 0.538574 194.407 0.555237C202.416 0.578156 210.448 0.581268 218.502 0.563568C219.312 0.561462 220.13 0.561462 220.958 0.563568M220.957 1.06357C232.627 1.0719 244.116 1.07608 255.423 1.07397C256.461 1.07294 257.513 1.06171 258.572 1.05042H258.576M220.957 1.06357L220.957 0.563568C220.957 0.563568 220.958 0.563568 220.958 0.563568M220.957 1.06357L220.958 0.563568M258.576 1.05042L258.608 1.05002L258.672 1.04935H258.676C260.72 1.02771 262.789 1.0058 264.832 1.05731C265.153 1.06561 265.472 1.06357 265.791 1.05835C276.121 1.2323 282.416 1.91879 287.53 4.63336C293.551 7.82919 298.446 12.9281 301.514 19.2C304.23 24.7521 304.831 31.6407 304.964 43.2323C304.967 44.8323 304.972 46.4 304.98 47.9365C304.989 49.576 304.984 51.3906 304.967 53.3823C304.92 59.0333 304.923 64.5542 304.977 69.9427M258.576 1.05042L258.57 0.550415L258.57 0.550446L258.576 1.05042ZM304.977 69.9427C304.997 71.751 305.004 73.5688 304.998 75.3969M304.977 69.9427L305.477 69.9377C305.477 69.9376 305.477 69.9375 305.477 69.9374L304.977 69.9427ZM304.998 75.3969C304.936 103.477 304.916 132.276 304.941 161.794C304.944 165.003 304.937 168.217 304.93 171.285L304.93 171.286C304.918 177.033 304.907 182.267 304.962 185.985C305.013 189.423 304.99 192.808 304.968 196.188C304.953 198.508 304.937 200.827 304.946 203.157C304.998 217.153 304.994 231.213 304.933 245.334C304.891 254.916 304.893 261.23 304.938 264.277C304.984 267.357 304.971 270.215 304.958 273.054L304.958 273.056C304.952 274.285 304.947 275.509 304.946 276.747C304.937 291.539 304.935 305.179 304.94 317.667V317.167H305H305.44M304.998 75.3969L305.498 75.398C305.498 75.3981 305.498 75.3982 305.498 75.3983C305.436 103.478 305.416 132.276 305.441 161.793C305.444 165.003 305.437 168.218 305.43 171.286L305.43 171.286L305.43 171.288C305.418 177.036 305.407 182.265 305.462 185.978C305.513 189.421 305.49 192.811 305.468 196.189L305.468 196.191C305.453 198.512 305.437 200.828 305.446 203.155C305.498 217.153 305.494 231.213 305.433 245.337C305.391 254.919 305.393 261.228 305.438 264.27L305.038 264.276L305.438 264.27C305.484 267.354 305.471 270.216 305.458 273.054L305.458 273.056L305.458 273.059C305.452 274.287 305.447 275.511 305.446 276.747C305.437 291.342 305.435 304.816 305.44 317.167M304.998 75.3969L305.44 317.167M138.29 8.52667C138.291 8.52713 138.291 8.52759 138.291 8.52805L137.87 8.79062L138.29 8.52667ZM138.29 8.52667C135.891 4.6824 132.526 2.21432 128.212 1.14493L128.211 1.14471C127.683 1.01471 126.996 0.894196 126.157 0.780579M138.29 8.52667L87.015 1.04376M126.157 0.780579C126.157 0.78064 126.158 0.78067 126.158 0.780731L126.09 1.27606L126.157 0.780579ZM126.157 0.780579C125.521 0.693054 124.827 0.645111 124.081 0.63443C118.944 0.563568 113.808 0.533325 108.671 0.543762C101.696 0.558289 94.5353 0.56662 87.1874 0.568756M87.1874 0.568756C87.1167 0.538116 87.0373 0.519775 86.952 0.519775L86.946 0.519867C81.2093 0.588562 75.5708 0.582306 70.0304 0.5H70.023H69.973L69.9697 0.500031C69.8282 0.500977 69.6885 0.515137 69.5523 0.54364M87.1874 0.568756C87.1552 0.568756 87.123 0.568787 87.0909 0.568787C87.1288 0.568787 87.1617 0.574402 87.1902 0.582489L87.091 0.933044L87.0849 0.954315L87.015 1.04376M87.1874 0.568756C87.2413 0.592133 87.2902 0.622681 87.3328 0.657745L87.091 0.951477L87.0853 0.958435L87.0541 1.06323L87.083 0.961151L87.015 1.04376M69.5523 0.54364C69.5054 0.553436 69.459 0.564972 69.413 0.578217C69.4124 0.5784 69.4117 0.578583 69.4111 0.578766C69.4022 0.581329 69.3934 0.583954 69.3846 0.586639C69.3935 0.583984 69.4023 0.581757 69.4111 0.579865C69.4117 0.579712 69.4124 0.579559 69.413 0.579437C69.4617 0.569214 69.5087 0.57019 69.5503 0.578522L69.4826 0.916016L69.413 0.686462L69.4115 0.681549L69.3829 0.587158C69.3823 0.587341 69.3818 0.587494 69.3812 0.587677L69.4115 0.686401L69.413 0.691162L69.4824 0.917145L69.4656 1.00101L69.4495 1.04691L69.443 1.06561M69.5523 0.54364C69.6282 0.564148 69.7138 0.605316 69.7896 0.684418C69.894 0.793213 69.9246 0.916595 69.932 1.00076C69.9456 1.00034 69.9593 1.00009 69.973 1H70.023C75.568 1.08231 81.211 1.08859 86.952 1.01981C86.974 1.01981 86.996 1.02811 87.015 1.04376M69.443 1.06561L69.452 1.06879M69.443 1.06561L69.456 1.04691L69.4565 1.04611L69.4564 1.04691L69.452 1.06879M69.452 1.06879C69.478 1.07397 69.504 1.07291 69.528 1.06561C69.55 1.05887 69.5723 1.05261 69.5948 1.04691C69.7019 1.01971 69.8145 1.00433 69.9317 1.00076C69.927 0.953461 69.9144 0.898529 69.887 0.841461C69.849 0.762177 69.7922 0.699371 69.7282 0.654938L69.5022 0.980438L69.5222 1.04691L69.5019 0.980743L69.4633 1.03635L69.4596 1.04691L69.452 1.06879ZM140.14 12.9302C139.763 12.349 139.371 11.6532 138.963 10.8427M140.14 12.9302L138.963 10.8427M138.963 10.8427C138.45 9.82294 138.085 9.13959 137.867 8.79272M138.963 10.8427L137.867 8.79272M137.867 8.79272C135.535 5.05521 132.277 2.66772 128.092 1.63025L137.867 8.79272ZM87.091 0.946594L87.0874 0.951141L87.091 0.939209L87.1965 0.58429C87.2347 0.595642 87.2796 0.615967 87.323 0.649872L87.091 0.946594Z" stroke="black" stroke-opacity="0.05"/>
</svg>
