<svg width="306" height="434" viewBox="0 0 306 434" fill="none" xmlns="http://www.w3.org/2000/svg">
<mask id="path-1-outside-1_1477_2165" maskUnits="userSpaceOnUse" x="0" y="0" width="306" height="434" fill="black">
<rect fill="white" width="306" height="434"/>
<path d="M1 381.8C1 399.722 1 408.683 4.48779 415.528C7.55574 421.549 12.4511 426.444 18.4723 429.512C25.3175 433 34.2783 433 52.2 433H253.8C271.722 433 280.683 433 287.528 429.512C293.549 426.444 298.444 421.549 301.512 415.528C305 408.683 305 399.722 305 381.8V76H304.997C304.997 75.7989 304.998 75.5979 304.998 75.3969C305.004 73.5687 304.997 71.751 304.977 69.9427C304.923 64.5542 304.92 59.0333 304.967 53.3823C304.984 51.3906 304.989 49.576 304.98 47.9364C304.972 46.4 304.967 44.8323 304.964 43.2323C304.831 31.6406 304.23 24.7521 301.514 19.2C298.446 12.9281 293.551 7.82917 287.53 4.63334C282.416 1.91877 276.121 1.23228 265.791 1.05833C265.473 1.06355 265.153 1.06561 264.832 1.05728C262.788 1.00577 260.719 1.02767 258.674 1.04931L258.608 1.05L258.576 1.05039C257.516 1.0617 256.462 1.07292 255.423 1.07397C244.116 1.07607 232.627 1.07188 220.957 1.06355C220.13 1.06145 219.312 1.06145 218.503 1.06355C210.448 1.08125 202.415 1.07814 194.406 1.05522C188.473 1.03856 183.75 1.10519 180.236 1.25415C179.019 1.30622 177.45 1.73646 175.53 2.5427C172.747 3.71145 170.468 5.61874 168.695 8.26353C168.282 8.87706 167.918 9.60313 167.548 10.3438C167.225 10.9875 166.896 11.6427 166.526 12.2427C164.503 15.5156 161.778 17.7656 158.349 18.9948C155.339 20.0719 152.296 20.2219 149.22 19.4437C145.352 18.4687 142.325 16.2969 140.14 12.9302C139.763 12.3489 139.371 11.6531 138.963 10.8427C138.45 9.82292 138.085 9.13958 137.867 8.7927C135.535 5.05518 132.277 2.66772 128.092 1.63022C127.588 1.50627 126.921 1.38856 126.09 1.27606C125.477 1.19169 124.804 1.1448 124.074 1.13437C118.94 1.06355 113.806 1.03332 108.672 1.04374C101.666 1.05833 94.473 1.06666 87.091 1.06876C87.078 1.06876 87.065 1.06666 87.054 1.06355C87.04 1.05938 87.027 1.05312 87.015 1.04374C86.996 1.0281 86.974 1.0198 86.952 1.0198C81.211 1.08856 75.568 1.0823 70.023 1H69.973C69.816 1.00105 69.667 1.02292 69.528 1.06561C69.504 1.07289 69.478 1.07397 69.452 1.06876L69.443 1.06561C69.437 1.06145 69.434 1.05522 69.434 1.04689C69.434 1.0323 69.427 1.02499 69.413 1.02499C64.357 1.04686 59.303 1.06355 54.249 1.07397C54.182 1.07397 54.126 1.05833 54.07 1.04168L54.0613 1.03931C54.0102 1.02544 53.9585 1.01144 53.898 1.01144C49.324 1.02499 44.764 1.04063 40.218 1.05833C29.873 1.23123 23.572 1.91667 18.454 4.63334C12.433 7.82917 7.53699 12.9281 4.46899 19.2C1.59 25.0854 1.08801 32.4729 1 45.3719C1.00299 46.6864 1.005 48.001 1.00601 49.3156C1.00601 49.416 1.01565 49.5082 1.02549 49.6024L1.02765 49.6231C1.0372 49.714 1.04706 49.8082 1.048 49.9125C1.10941 59.3214 1.13444 68.017 1.12312 76H1V381.8Z"/>
</mask>
<path d="M1 381.8C1 399.722 1 408.683 4.48779 415.528C7.55574 421.549 12.4511 426.444 18.4723 429.512C25.3175 433 34.2783 433 52.2 433H253.8C271.722 433 280.683 433 287.528 429.512C293.549 426.444 298.444 421.549 301.512 415.528C305 408.683 305 399.722 305 381.8V76H304.997C304.997 75.7989 304.998 75.5979 304.998 75.3969C305.004 73.5687 304.997 71.751 304.977 69.9427C304.923 64.5542 304.92 59.0333 304.967 53.3823C304.984 51.3906 304.989 49.576 304.98 47.9364C304.972 46.4 304.967 44.8323 304.964 43.2323C304.831 31.6406 304.23 24.7521 301.514 19.2C298.446 12.9281 293.551 7.82917 287.53 4.63334C282.416 1.91877 276.121 1.23228 265.791 1.05833C265.473 1.06355 265.153 1.06561 264.832 1.05728C262.788 1.00577 260.719 1.02767 258.674 1.04931L258.608 1.05L258.576 1.05039C257.516 1.0617 256.462 1.07292 255.423 1.07397C244.116 1.07607 232.627 1.07188 220.957 1.06355C220.13 1.06145 219.312 1.06145 218.503 1.06355C210.448 1.08125 202.415 1.07814 194.406 1.05522C188.473 1.03856 183.75 1.10519 180.236 1.25415C179.019 1.30622 177.45 1.73646 175.53 2.5427C172.747 3.71145 170.468 5.61874 168.695 8.26353C168.282 8.87706 167.918 9.60313 167.548 10.3438C167.225 10.9875 166.896 11.6427 166.526 12.2427C164.503 15.5156 161.778 17.7656 158.349 18.9948C155.339 20.0719 152.296 20.2219 149.22 19.4437C145.352 18.4687 142.325 16.2969 140.14 12.9302C139.763 12.3489 139.371 11.6531 138.963 10.8427C138.45 9.82292 138.085 9.13958 137.867 8.7927C135.535 5.05518 132.277 2.66772 128.092 1.63022C127.588 1.50627 126.921 1.38856 126.09 1.27606C125.477 1.19169 124.804 1.1448 124.074 1.13437C118.94 1.06355 113.806 1.03332 108.672 1.04374C101.666 1.05833 94.473 1.06666 87.091 1.06876C87.078 1.06876 87.065 1.06666 87.054 1.06355C87.04 1.05938 87.027 1.05312 87.015 1.04374C86.996 1.0281 86.974 1.0198 86.952 1.0198C81.211 1.08856 75.568 1.0823 70.023 1H69.973C69.816 1.00105 69.667 1.02292 69.528 1.06561C69.504 1.07289 69.478 1.07397 69.452 1.06876L69.443 1.06561C69.437 1.06145 69.434 1.05522 69.434 1.04689C69.434 1.0323 69.427 1.02499 69.413 1.02499C64.357 1.04686 59.303 1.06355 54.249 1.07397C54.182 1.07397 54.126 1.05833 54.07 1.04168L54.0613 1.03931C54.0102 1.02544 53.9585 1.01144 53.898 1.01144C49.324 1.02499 44.764 1.04063 40.218 1.05833C29.873 1.23123 23.572 1.91667 18.454 4.63334C12.433 7.82917 7.53699 12.9281 4.46899 19.2C1.59 25.0854 1.08801 32.4729 1 45.3719C1.00299 46.6864 1.005 48.001 1.00601 49.3156C1.00601 49.416 1.01565 49.5082 1.02549 49.6024L1.02765 49.6231C1.0372 49.714 1.04706 49.8082 1.048 49.9125C1.10941 59.3214 1.13444 68.017 1.12312 76H1V381.8Z" fill="white"/>
<path d="M4.48779 415.528L3.59678 415.982L3.59679 415.982L4.48779 415.528ZM18.4723 429.512L18.9263 428.621L18.9263 428.621L18.4723 429.512ZM287.528 429.512L287.074 428.621L287.074 428.621L287.528 429.512ZM301.512 415.528L300.621 415.074L300.621 415.074L301.512 415.528ZM305 76H306V75H305V76ZM304.997 76L303.997 75.9977L303.995 77H304.997V76ZM304.998 75.3969L303.998 75.394L303.998 75.3946L304.998 75.3969ZM304.977 69.9427L303.977 69.9527L303.977 69.9533L304.977 69.9427ZM304.967 53.3823L303.967 53.3735L303.967 53.3739L304.967 53.3823ZM304.98 47.9364L303.98 47.9417L303.98 47.9418L304.98 47.9364ZM304.964 43.2323L305.964 43.2307L305.964 43.2208L304.964 43.2323ZM301.514 19.2L300.616 19.6394L300.616 19.6394L301.514 19.2ZM287.53 4.63334L287.061 5.51662L287.061 5.51663L287.53 4.63334ZM265.791 1.05833L265.808 0.0584748L265.791 0.0581952L265.774 0.0584672L265.791 1.05833ZM264.832 1.05728L264.858 0.0576198L264.857 0.0576015L264.832 1.05728ZM258.674 1.04931L258.685 2.04926L258.685 2.04926L258.674 1.04931ZM258.608 1.05L258.597 0.0500579L258.596 0.0500738L258.608 1.05ZM258.576 1.05039L258.586 2.05033L258.587 2.05032L258.576 1.05039ZM255.423 1.07397L255.423 2.07397L255.424 2.07397L255.423 1.07397ZM220.957 1.06355L220.954 2.06354L220.956 2.06355L220.957 1.06355ZM218.503 1.06355L218.505 2.06354L218.505 2.06354L218.503 1.06355ZM194.406 1.05522L194.409 0.0552218L194.409 0.0552217L194.406 1.05522ZM180.236 1.25415L180.194 0.255051L180.193 0.255068L180.236 1.25415ZM175.53 2.5427L175.143 1.62069L175.143 1.6207L175.53 2.5427ZM168.695 8.26353L169.525 8.82195L169.526 8.82036L168.695 8.26353ZM167.548 10.3438L168.442 10.7922L168.443 10.7907L167.548 10.3438ZM166.526 12.2427L167.377 12.7685L167.377 12.7676L166.526 12.2427ZM158.349 18.9948L158.686 19.9363L158.686 19.9361L158.349 18.9948ZM149.22 19.4437L149.465 18.4743L149.464 18.4741L149.22 19.4437ZM140.14 12.9302L139.301 13.4744L139.301 13.4746L140.14 12.9302ZM138.963 10.8427L138.07 11.2921L138.07 11.2924L138.963 10.8427ZM137.867 8.7927L137.019 9.32205L137.02 9.3248L137.867 8.7927ZM128.092 1.63022L128.333 0.6596L128.331 0.659153L128.092 1.63022ZM126.09 1.27606L125.954 2.26672L125.956 2.26702L126.09 1.27606ZM124.074 1.13437L124.088 0.134475L124.088 0.134468L124.074 1.13437ZM108.672 1.04374L108.67 0.0437439L108.67 0.043744L108.672 1.04374ZM87.091 1.06876L87.091 2.06876L87.0913 2.06876L87.091 1.06876ZM87.054 1.06355L86.769 2.02216L86.7815 2.02571L87.054 1.06355ZM87.015 1.04374L86.3794 1.81576L86.3891 1.82376L86.399 1.83151L87.015 1.04374ZM86.952 1.0198V0.0197329L86.94 0.0198764L86.952 1.0198ZM70.023 1L70.0378 0.000110133L70.0304 0H70.023V1ZM69.973 1L69.973 -2.23236e-05L69.9663 2.23231e-05L69.973 1ZM69.528 1.06561L69.8182 2.02257L69.8216 2.02154L69.528 1.06561ZM69.452 1.06876L69.122 2.01274L69.1874 2.03562L69.2554 2.04924L69.452 1.06876ZM69.443 1.06561L68.8726 1.88698L68.9844 1.96466L69.113 2.0096L69.443 1.06561ZM69.413 1.02499L69.413 0.0249769L69.4087 0.0249956L69.413 1.02499ZM54.249 1.07397L54.249 2.07398L54.2511 2.07397L54.249 1.07397ZM54.07 1.04168L54.3551 0.083181L54.3433 0.0796739L54.3315 0.0764578L54.07 1.04168ZM54.0613 1.03931L53.7995 2.00444L53.7998 2.00453L54.0613 1.03931ZM53.898 1.01144L53.898 0.0114397L53.895 0.0114485L53.898 1.01144ZM40.218 1.05833L40.2141 0.0582585L40.2013 0.0584727L40.218 1.05833ZM18.454 4.63334L18.9228 5.51663L18.9229 5.51662L18.454 4.63334ZM4.46899 19.2L5.36728 19.6394L5.36728 19.6394L4.46899 19.2ZM1 45.3719L-1.81114e-05 45.365L2.5879e-06 45.3741L1 45.3719ZM1.00601 49.3156L2.00601 49.3156L2.00601 49.3149L1.00601 49.3156ZM1.02549 49.6024L2.0201 49.4987L2.02008 49.4985L1.02549 49.6024ZM1.02765 49.6231L0.0330336 49.7268L0.0331229 49.7276L1.02765 49.6231ZM1.048 49.9125L2.04799 49.906L2.04796 49.9034L1.048 49.9125ZM1.12312 76V77H2.1217L2.12312 76.0014L1.12312 76ZM1 76V75H0V76H1ZM5.3788 415.074C3.7187 411.816 2.86357 408.01 2.43265 402.736C2.00078 397.45 2 390.777 2 381.8H0C0 390.744 -0.000777705 397.513 0.439295 402.899C0.880322 408.297 1.76909 412.395 3.59678 415.982L5.3788 415.074ZM18.9263 428.621C13.0933 425.649 8.35087 420.907 5.3788 415.074L3.59679 415.982C6.76061 422.191 11.809 427.239 18.0183 430.403L18.9263 428.621ZM52.2 432C43.2227 432 36.5498 431.999 31.2639 431.567C25.9897 431.136 22.1844 430.281 18.9263 428.621L18.0183 430.403C21.6054 432.231 25.7031 433.12 31.101 433.561C36.4873 434.001 43.2557 434 52.2 434V432ZM253.8 432H52.2V434H253.8V432ZM287.074 428.621C283.816 430.281 280.01 431.136 274.736 431.567C269.45 431.999 262.777 432 253.8 432V434C262.744 434 269.513 434.001 274.899 433.561C280.297 433.12 284.395 432.231 287.982 430.403L287.074 428.621ZM300.621 415.074C297.649 420.907 292.907 425.649 287.074 428.621L287.982 430.403C294.191 427.239 299.239 422.191 302.403 415.982L300.621 415.074ZM304 381.8C304 390.777 303.999 397.45 303.567 402.736C303.136 408.01 302.281 411.816 300.621 415.074L302.403 415.982C304.231 412.395 305.12 408.297 305.561 402.899C306.001 397.513 306 390.744 306 381.8H304ZM304.997 77H305V75H304.997V77ZM305.997 76.0023C305.997 75.7922 305.998 75.6089 305.998 75.3991L303.998 75.3946C303.998 75.5868 303.997 75.8056 303.997 75.9977L305.997 76.0023ZM305.998 75.3997C306.004 73.5671 305.997 71.745 305.977 69.9321L303.977 69.9533C303.997 71.7571 304.004 73.5703 303.998 75.394L305.998 75.3997ZM305.977 69.9327C305.923 64.5505 305.92 59.0358 305.967 53.3906L303.967 53.3739C303.92 59.0308 303.923 64.5578 303.977 69.9527L305.977 69.9327ZM305.967 53.391C305.984 51.3956 305.989 49.5763 305.98 47.9311L303.98 47.9418C303.989 49.5758 303.984 51.3856 303.967 53.3735L305.967 53.391ZM305.98 47.9312C305.972 46.396 305.967 44.8296 305.964 43.2307L303.964 43.2339C303.967 44.835 303.972 46.404 303.98 47.9417L305.98 47.9312ZM305.964 43.2208C305.831 31.6533 305.241 24.5433 302.412 18.7606L300.616 19.6394C303.219 24.9608 303.831 31.628 303.964 43.2438L305.964 43.2208ZM302.412 18.7606C299.254 12.304 294.211 7.04734 287.998 3.75005L287.061 5.51663C292.891 8.61099 297.638 13.5522 300.616 19.6394L302.412 18.7606ZM287.998 3.75006C282.648 0.91014 276.127 0.232245 265.808 0.0584748L265.774 2.05819C276.115 2.23232 282.183 2.9274 287.061 5.51662L287.998 3.75006ZM265.774 0.0584672C265.462 0.0635873 265.159 0.0654161 264.858 0.0576201L264.806 2.05695C265.148 2.06581 265.483 2.06351 265.807 2.0582L265.774 0.0584672ZM264.857 0.0576015C262.793 0.00556372 260.705 0.0277607 258.664 0.0493684L258.685 2.04926C260.733 2.02758 262.784 2.00598 264.807 2.05697L264.857 0.0576015ZM258.596 0.0500738L258.564 0.0504553L258.587 2.05032L258.62 2.04993L258.596 0.0500738ZM258.565 0.0504428C257.504 0.0617687 256.456 0.0729305 255.422 0.0739738L255.424 2.07397C256.469 2.07292 257.527 2.06164 258.586 2.05033L258.565 0.0504428ZM255.423 0.0739734C244.116 0.0760714 232.627 0.0718753 220.957 0.0635467L220.956 2.06355C232.626 2.07188 244.115 2.07607 255.423 2.07397L255.423 0.0739734ZM220.959 0.0635497C220.131 0.0614474 219.311 0.0614472 218.5 0.0635499L218.505 2.06354C219.313 2.06145 220.129 2.06145 220.954 2.06354L220.959 0.0635497ZM218.501 0.0635489C210.447 0.0812517 202.416 0.0781371 194.409 0.0552218L194.403 2.05521C202.414 2.07814 210.448 2.08125 218.505 2.06354L218.501 0.0635489ZM194.409 0.0552217C188.469 0.038546 183.729 0.105167 180.194 0.255052L180.278 2.25326C183.771 2.10521 188.477 2.03857 194.403 2.05521L194.409 0.0552217ZM180.193 0.255068C178.802 0.31458 177.105 0.796538 175.143 1.62069L175.917 3.46471C177.795 2.67638 179.236 2.29787 180.279 2.25324L180.193 0.255068ZM175.143 1.6207C172.169 2.86943 169.74 4.90877 167.864 7.7067L169.526 8.82036C171.196 6.32871 173.325 4.55348 175.917 3.46469L175.143 1.6207ZM167.865 7.70512C167.41 8.38213 167.017 9.16894 166.653 9.89684L168.443 10.7907C168.819 10.0373 169.154 9.37199 169.525 8.82195L167.865 7.70512ZM166.654 9.8953C166.328 10.5463 166.018 11.1615 165.675 11.7178L167.377 12.7676C167.774 12.1239 168.122 11.4287 168.442 10.7922L166.654 9.8953ZM165.675 11.7169C163.764 14.8088 161.215 16.9052 158.012 18.0534L158.686 19.9361C162.341 18.6261 165.242 16.2224 167.377 12.7685L165.675 11.7169ZM158.012 18.0532C155.187 19.064 152.347 19.2033 149.465 18.4743L148.975 20.4132C152.245 21.2405 155.491 21.0797 158.686 19.9363L158.012 18.0532ZM149.464 18.4741C145.843 17.5612 143.027 15.5423 140.979 12.3858L139.301 13.4746C141.623 17.0514 144.861 19.3763 148.976 20.4134L149.464 18.4741ZM140.979 12.3861C140.627 11.8432 140.253 11.1807 139.856 10.393L138.07 11.2924C138.489 12.1256 138.899 12.8547 139.301 13.4744L140.979 12.3861ZM139.856 10.3933C139.346 9.37879 138.961 8.65383 138.714 8.26059L137.02 9.3248C137.209 9.62533 137.554 10.267 138.07 11.2921L139.856 10.3933ZM138.715 8.26334C136.249 4.31074 132.776 1.76114 128.333 0.659602L127.851 2.60084C131.778 3.5743 134.821 5.79963 137.019 9.32205L138.715 8.26334ZM128.331 0.659153C127.778 0.523115 127.071 0.399784 126.224 0.285097L125.956 2.26702C126.771 2.37733 127.398 2.48943 127.853 2.60129L128.331 0.659153ZM126.226 0.285396C125.566 0.194499 124.851 0.145375 124.088 0.134475L124.06 2.13427C124.757 2.14422 125.388 2.18888 125.954 2.26672L126.226 0.285396ZM124.088 0.134468C118.949 0.0635689 113.809 0.0333064 108.67 0.0437439L108.674 2.04374C113.803 2.03332 118.931 2.06352 124.06 2.13428L124.088 0.134468ZM108.67 0.043744C101.665 0.0583339 94.4722 0.066662 87.0907 0.06876L87.0913 2.06876C94.4739 2.06666 101.667 2.05833 108.674 2.04374L108.67 0.043744ZM87.091 0.0687599C87.1796 0.0687599 87.2584 0.0821094 87.3265 0.101379L86.7815 2.02571C86.8716 2.05121 86.9764 2.06876 87.091 2.06876V0.0687599ZM87.339 0.105009C87.4294 0.131901 87.5322 0.178778 87.631 0.255971L86.399 1.83151C86.5217 1.92746 86.6506 1.98686 86.769 2.02208L87.339 0.105009ZM87.6506 0.271722C87.4728 0.125353 87.2308 0.0198046 86.952 0.0198046V2.0198C86.7172 2.0198 86.5192 1.93085 86.3794 1.81576L87.6506 0.271722ZM86.94 0.0198764C81.2076 0.0885337 75.5735 0.0822741 70.0378 0.000110133L70.0082 1.99989C75.5625 2.08233 81.2144 2.0886 86.964 2.01973L86.94 0.0198764ZM70.023 0H69.973V2H70.023V0ZM69.9663 2.23231e-05C69.7205 0.00166519 69.4741 0.0360652 69.2344 0.109682L69.8216 2.02154C69.8599 2.00977 69.9116 2.00043 69.9797 1.99998L69.9663 2.23231e-05ZM69.2378 0.108659C69.3805 0.0653579 69.5222 0.0629419 69.6486 0.0882752L69.2554 2.04924C69.4337 2.085 69.6275 2.08043 69.8182 2.02257L69.2378 0.108659ZM69.782 0.124777L69.773 0.12163L69.113 2.0096L69.122 2.01274L69.782 0.124777ZM70.0134 0.244243C70.1443 0.335169 70.2602 0.463412 70.3378 0.625082C70.413 0.781803 70.434 0.93143 70.434 1.04689H68.434C68.434 1.32942 68.5564 1.6674 68.8726 1.88698L70.0134 0.244243ZM70.434 1.04689C70.434 0.895417 70.3983 0.596673 70.1505 0.338327C69.8953 0.0721739 69.5853 0.0249863 69.413 0.0249863V2.02499C69.2547 2.02499 68.9552 1.98145 68.707 1.72261C68.4662 1.47156 68.434 1.18377 68.434 1.04689H70.434ZM69.4087 0.0249956C64.3533 0.0468636 59.3001 0.0635503 54.2469 0.0739755L54.2511 2.07397C59.3059 2.06354 64.3606 2.04685 69.4173 2.02498L69.4087 0.0249956ZM54.249 0.0739733C54.34 0.0739733 54.406 0.098321 54.3551 0.083181L53.7849 2.00017C53.846 2.01835 54.024 2.07397 54.249 2.07397V0.0739733ZM54.3315 0.0764578L54.3227 0.0740926L53.7998 2.00453L53.8086 2.00689L54.3315 0.0764578ZM54.3231 0.0741837C54.2819 0.063032 54.1094 0.0114441 53.898 0.0114441V2.01144C53.8497 2.01144 53.8122 2.00566 53.7919 2.00172C53.7826 1.99991 53.7774 1.99856 53.7788 1.99891C53.7814 1.99955 53.7853 2.00058 53.7995 2.00444L54.3231 0.0741837ZM53.895 0.0114485C49.3207 0.0249916 44.7604 0.0406329 40.2141 0.0583407L40.2219 2.05833C44.7676 2.04062 49.3273 2.02498 53.901 2.01144L53.895 0.0114485ZM40.2013 0.0584727C29.8672 0.231192 23.3395 0.907966 17.9852 3.75006L18.9229 5.51662C23.8046 2.92538 29.8788 2.23128 40.2347 2.05819L40.2013 0.0584727ZM17.9852 3.75005C11.7731 7.04732 6.72905 12.304 3.57071 18.7606L5.36728 19.6394C8.34492 13.5522 13.093 8.61101 18.9228 5.51663L17.9852 3.75005ZM3.57071 18.7606C0.574825 24.8849 0.0877447 32.5088 2.32775e-05 45.365L1.99998 45.3787C2.08828 32.437 2.60517 25.2859 5.36728 19.6394L3.57071 18.7606ZM2.5879e-06 45.3741C0.00299218 46.6882 0.00500557 48.0023 0.00601226 49.3164L2.00601 49.3149C2.005 47.9998 2.00299 46.6847 2 45.3696L2.5879e-06 45.3741ZM0.00601196 49.3156C0.00601196 49.4758 0.0216822 49.618 0.0309001 49.7063L2.02008 49.4985C2.00962 49.3984 2.00601 49.3561 2.00601 49.3156H0.00601196ZM0.0331229 49.7276C0.0430658 49.8222 0.0475916 49.8715 0.0480453 49.9216L2.04796 49.9034C2.04652 49.7448 2.03134 49.6058 2.02217 49.5186L0.0331229 49.7276ZM0.0480254 49.919C0.109413 59.3258 0.134433 68.0187 0.123118 75.9986L2.12312 76.0014C2.13444 68.0154 2.1094 59.3171 2.04798 49.906L0.0480254 49.919ZM1 77H1.12312V75H1V77ZM2 381.8V76H0V381.8H2ZM304 76V381.8H306V76H304ZM258.664 0.049367L258.597 0.0500588L258.618 2.04995L258.685 2.04926L258.664 0.049367ZM0.0308728 49.706L0.033034 49.7268L2.02226 49.5195L2.0201 49.4987L0.0308728 49.706Z" fill="#F2F2F2" mask="url(#path-1-outside-1_1477_2165)"/>
</svg>
