<svg width="304" height="432" viewBox="0 0 304 432" fill="none" xmlns="http://www.w3.org/2000/svg">
<path d="M300.516 19.6563C304.004 27.3572 304.004 37.4381 304.004 57.6V90H303.944C303.939 103.486 303.941 118.218 303.95 134.193C303.951 135.53 303.956 136.852 303.962 138.179L303.962 138.182C303.975 141.248 303.988 144.334 303.942 147.661C303.897 150.951 303.895 157.771 303.937 168.119C303.998 183.371 304.002 198.555 303.95 213.67C303.941 216.187 303.957 218.691 303.972 221.198C303.994 224.847 304.017 228.503 303.966 232.216C303.911 236.232 303.922 241.884 303.934 248.091L303.934 248.092C303.941 251.406 303.947 254.877 303.945 258.343C303.92 290.222 303.939 321.325 304.002 351.651C304.007 353.626 304 355.589 303.981 357.542C303.927 363.362 303.924 369.324 303.971 375.427C303.988 377.578 303.993 379.538 303.984 381.309C303.976 382.968 303.971 384.661 303.968 386.389C303.835 398.908 303.234 406.348 300.518 412.344C297.45 419.118 292.555 424.625 286.534 428.076C281.42 431.008 275.125 431.749 264.795 431.937C264.476 431.931 264.157 431.929 263.836 431.938C261.791 431.994 259.721 431.97 257.676 431.947L257.612 431.946L257.579 431.946C256.519 431.933 255.466 431.921 254.427 431.92C243.119 431.918 231.631 431.922 219.961 431.931C219.134 431.934 218.316 431.934 217.507 431.931C209.452 431.912 201.419 431.916 193.41 431.94C187.477 431.958 182.754 431.886 179.24 431.726C178.023 431.669 176.454 431.205 174.534 430.334C171.751 429.072 169.472 427.012 167.699 424.155C167.286 423.493 166.922 422.709 166.552 421.909C166.229 421.214 165.9 420.506 165.53 419.858C163.507 416.323 160.782 413.893 157.353 412.566C154.343 411.402 151.3 411.24 148.224 412.081C144.356 413.134 141.329 415.479 139.144 419.115C138.767 419.743 138.375 420.495 137.967 421.37C137.454 422.471 137.089 423.209 136.871 423.584C134.539 427.62 131.281 430.199 127.096 431.319C126.592 431.453 125.925 431.58 125.094 431.702C124.481 431.793 123.808 431.844 123.078 431.855C117.944 431.931 112.81 431.964 107.676 431.953C100.67 431.937 93.4769 431.928 86.0949 431.926C86.0819 431.926 86.0689 431.928 86.0579 431.931C86.0439 431.936 86.0309 431.943 86.0189 431.953C85.9999 431.97 85.9779 431.979 85.9559 431.979C80.2149 431.904 74.5719 431.911 69.0269 432H68.9769C68.8199 431.999 68.6709 431.975 68.5319 431.929C68.5079 431.921 68.4819 431.92 68.4559 431.926L68.4469 431.929C68.4409 431.934 68.4379 431.94 68.4379 431.949C68.4379 431.965 68.4309 431.973 68.4169 431.973C63.3609 431.949 58.3069 431.931 53.2529 431.92C53.1859 431.92 53.1299 431.937 53.0739 431.955C53.0199 431.971 52.9659 431.988 52.9019 431.988C48.3279 431.973 43.7679 431.956 39.2219 431.937C28.8769 431.75 22.5759 431.01 17.4579 428.076C11.4369 424.625 6.54089 419.118 3.4729 412.344C0.593903 405.988 0.0919189 398.009 0.00390625 384.078C0.00689697 382.659 0.00891113 381.239 0.00991821 379.819C0.00991821 379.709 0.0198975 379.608 0.0299072 379.504L0.0315552 379.487C0.0411072 379.389 0.0509644 379.287 0.0519104 379.175C0.138916 364.776 0.152893 351.924 0.0939026 340.616C0.0829163 338.603 0.0838928 336.639 0.0968933 334.726C0.177887 321.562 0.196899 308.439 0.150909 295.355C0.144928 293.404 0.157715 291.396 0.170624 289.367L0.170898 289.323C0.189911 286.486 0.207886 283.609 0.174896 280.788C0.158905 279.559 0.162903 278.333 0.184906 277.108C0.2099 275.793 0.215912 274.565 0.203918 273.426C0.177917 270.892 0.164886 268.341 0.166901 265.772C0.173889 256.01 0.171906 246.455 0.161896 237.107C0.154907 231.919 0.159912 226.879 0.177917 221.986C0.215912 211.509 0.227905 200.913 0.213898 190.196C0.211884 189.466 0.211914 188.73 0.211914 187.988C0.219879 155.324 0.223389 122.662 0.221466 90H0.00390625V57.6C0.00390625 37.4381 0.00390625 27.3572 3.4917 19.6563C6.55963 12.8825 11.455 7.37521 17.4762 3.92377C24.3214 0 33.2822 0 51.2039 0L252.804 0C270.726 0 279.686 0 286.532 3.92377C292.553 7.37521 297.448 12.8825 300.516 19.6563Z" fill="white"/>
</svg>
