<?xml version="1.0" encoding="iso-8859-1"?>
<!-- Generator: Adobe Illustrator 19.0.0, SVG Export Plug-In . SVG Version: 6.00 Build 0)  -->
<svg version="1.1" id="Layer_1" xmlns="http://www.w3.org/2000/svg" xmlns:xlink="http://www.w3.org/1999/xlink" x="0px" y="0px"
	 viewBox="0 0 512.008 512.008" style="enable-background:new 0 0 512.008 512.008;" xml:space="preserve">
<g transform="translate(0 -1)">
	<g>
		<path d="M368.211,42.963C322.495-0.292,269.602,0.831,264.58,1.048l-16.837,0.02c-2.274-0.128-56.911-2.599-103.946,41.895
			c-43.146,40.832-65.024,106.594-65.024,195.466c0,67.249,6.607,135.759,54.518,181.238c7.724,7.333,16.028,13.898,24.522,20.054
			v63.442c0,5.435,4.411,9.846,9.846,9.846c5.435,0,9.846-4.411,9.846-9.846v-49.851c1.027,0.688,2.053,1.373,3.077,2.057
			l9.423,6.331c3.722,2.521,7.365,5.218,10.998,7.906c15.764,11.658,32.069,23.71,55.001,23.71s39.237-12.052,55.01-23.71
			c3.623-2.688,7.266-5.386,10.988-7.906l9.433-6.331c1.2-0.802,2.404-1.608,3.609-2.415v50.209c0,5.435,4.411,9.846,9.846,9.846
			c5.435,0,9.846-4.411,9.846-9.846v-63.833c8.304-6.043,16.42-12.485,23.98-19.662c47.911-45.479,54.518-113.989,54.518-181.238
			C433.235,149.557,411.357,83.795,368.211,42.963z M365.159,405.39c-13.351,12.672-29.273,23.316-44.672,33.605l-9.531,6.4
			c-3.948,2.678-7.808,5.534-11.658,8.369c-13.804,10.22-26.85,19.86-43.294,19.86c-16.443,0-29.479-9.639-43.294-19.86
			c-3.85-2.836-7.71-5.691-11.658-8.369l-9.531-6.4c-6.094-4.072-12.267-8.202-18.331-12.489c-0.013-0.009-0.024-0.018-0.037-0.026
			c-9.247-6.538-18.241-13.443-26.304-21.09c-44.642-42.388-48.384-108.406-48.384-166.961c0-83.023,19.712-143.882,58.575-180.884
			c36.756-34.983,79.803-36.825,88.566-36.825c0.945,0,1.497,0.02,1.595,0.02h17.615c0.177,0,0.354,0,0.542-0.01
			c0.443-0.059,48.374-2.206,89.314,36.539c39.06,36.962,58.87,97.92,58.87,181.159C413.543,296.984,409.801,363.002,365.159,405.39
			z"/>
	</g>
</g>
<g>
</g>
<g>
</g>
<g>
</g>
<g>
</g>
<g>
</g>
<g>
</g>
<g>
</g>
<g>
</g>
<g>
</g>
<g>
</g>
<g>
</g>
<g>
</g>
<g>
</g>
<g>
</g>
<g>
</g>
</svg>
