<svg xmlns="http://www.w3.org/2000/svg" xml:space="preserve" id="prefix__Layer_1" x="0" y="0" enable-background="new 0 0 24 24" version="1.1" viewBox="0 0 24 24"><path d="M4 10.5C4 9.7 3.3 9 2.5 9S1 9.7 1 10.5v3c0 .8.7 1.5 1.5 1.5S4 14.3 4 13.5v-3zM14 9.5c0-.8-.7-1.5-1.5-1.5S11 8.7 11 9.5v5c0 .8.7 1.5 1.5 1.5s1.5-.7 1.5-1.5v-5zM24 10.5c0-.8-.7-1.5-1.5-1.5s-1.5.7-1.5 1.5v3c0 .8.7 1.5 1.5 1.5s1.5-.7 1.5-1.5v-3z" class="prefix__st0"/><path d="M19 3.5c0-.8-.7-1.5-1.5-1.5S16 2.7 16 3.5v17c0 .8.7 1.5 1.5 1.5s1.5-.7 1.5-1.5v-17zM9 6.5C9 5.7 8.3 5 7.5 5S6 5.7 6 6.5v11c0 .8.7 1.5 1.5 1.5S9 18.3 9 17.5v-11z"/></svg>