<?xml version="1.0" encoding="utf-8"?>
<!-- Generator: Adobe Illustrator 27.0.0, SVG Export Plug-In . SVG Version: 6.00 Build 0)  -->
<svg version="1.1" id="Layer_1" xmlns="http://www.w3.org/2000/svg" xmlns:xlink="http://www.w3.org/1999/xlink" x="0px" y="0px"
	 viewBox="0 0 48 48" style="enable-background:new 0 0 48 48;" xml:space="preserve">
<style type="text/css">
	.st0{fill:none;stroke:#F8D344;stroke-width:2;stroke-miterlimit:10;}
	.st1{fill:#FFC107;}
	.st2{fill:#FF3D00;}
	.st3{fill:#4CAF50;}
	.st4{fill:#1976D2;}
</style>
<g>
	<path id="shape" class="st0" d="M24,46.7C11.5,46.7,1.3,36.5,1.3,24l0,0C1.3,11.5,11.5,1.3,24,1.3l0,0c12.5,0,22.7,10.2,22.7,22.7
		l0,0C46.7,36.5,36.5,46.7,24,46.7z"/>
</g>
<g>
	<g transform="scale(5.33333,5.33333)">
		<path class="st1" d="M7.7,3.9H7.5v0h-3v1.3h1.9c-0.3,0.8-1,1.3-1.9,1.3c-1.1,0-2-0.9-2-2s0.9-2,2-2c0.5,0,1,0.2,1.3,0.5l0.9-0.9
			C6.1,1.6,5.4,1.2,4.5,1.2c-1.8,0-3.3,1.5-3.3,3.3s1.5,3.3,3.3,3.3s3.3-1.5,3.3-3.3C7.8,4.3,7.8,4.1,7.7,3.9z"/>
		<path class="st2" d="M1.6,3l1.1,0.8C3,3,3.7,2.5,4.5,2.5c0.5,0,1,0.2,1.3,0.5l0.9-0.9C6.1,1.6,5.4,1.2,4.5,1.2
			C3.2,1.2,2.1,1.9,1.6,3z"/>
		<path class="st3" d="M4.5,7.8c0.8,0,1.6-0.3,2.2-0.9l-1-0.9C5.4,6.3,4.9,6.5,4.5,6.5c-0.9,0-1.6-0.5-1.9-1.3L1.6,6
			C2.1,7.1,3.2,7.8,4.5,7.8z"/>
		<path class="st4" d="M7.7,3.9H7.5v0h-3v1.3h1.9C6.2,5.5,6,5.8,5.7,6.1c0,0,0,0,0,0l1,0.9C6.6,7,7.8,6.1,7.8,4.5
			C7.8,4.3,7.8,4.1,7.7,3.9z"/>
	</g>
</g>
</svg>
