<?xml version="1.0" encoding="utf-8"?>
<!-- Generator: Adobe Illustrator 27.0.0, SVG Export Plug-In . SVG Version: 6.00 Build 0)  -->
<svg version="1.1" id="Layer_1" xmlns="http://www.w3.org/2000/svg" xmlns:xlink="http://www.w3.org/1999/xlink" x="0px" y="0px"
	 viewBox="0 0 548.3 548.3" style="enable-background:new 0 0 548.3 548.3;" xml:space="preserve">
<g>
	<path d="M350,274.2C350,316,316,350,274.2,350s-75.8-33.9-75.8-75.8s33.9-75.8,75.8-75.8S350,232.3,350,274.2"/>
	<path d="M274.2,548.3c72.7,0,142.5-28.9,193.9-80.3c51.4-51.4,80.3-121.1,80.3-193.9S519.4,131.7,468,80.3
		C416.6,28.9,346.9,0,274.2,0S131.7,28.9,80.3,80.3C28.9,131.7,0,201.5,0,274.2c0.1,72.7,29,142.4,80.4,193.8
		C131.8,519.3,201.5,548.3,274.2,548.3L274.2,548.3z M274.2,163.3c29.4,0,57.6,11.7,78.4,32.5s32.5,49,32.5,78.4
		s-11.7,57.6-32.5,78.4s-49,32.5-78.4,32.5s-57.6-11.7-78.4-32.5s-32.5-49-32.5-78.4c0-29.4,11.7-57.6,32.5-78.3
		C216.6,175.1,244.8,163.4,274.2,163.3z"/>
</g>
</svg>
