<svg viewBox="0 0 74 82" xml:space="preserve" xmlns="http://www.w3.org/2000/svg" enable-background="new 0 0 74 82"><path d="M69.4 59.3c0 1.4-1.7 1.9-2.8 1.6l-20.4-6.5-4.5 20.9-.1.4c-.2.4-.4.7-.5.8-.5.4-1.1.5-1.3.5h-.4c-.8-.2-1.4-.8-1.6-1.6l-4.6-21-20.4 6.5c-1.1.3-2.7-.3-2.7-1.6V59c0-.4.3-.9.5-1.2l.3-.3L26.6 43 10.8 28.6l-.3-.3c-.2-.3-.5-.9-.5-1.3v-.3c0-1.4 1.7-1.9 2.7-1.6l20.4 6.5 4.4-20.8.1-.4c.4-.7 1-1.4 1.8-1.4l.6.1c.3.1.6.3.9.5.2.2.4.5.5.7l.1.4 4.6 20.9 20.4-6.5c1.1-.3 2.8.2 2.8 1.6v.3c0 .4-.4 1-.6 1.3L52.8 43l15.8 14.4c.4.6.8 1.1.8 1.6v.3z" fill="#cccccc" class="fill-000000"></path><path d="M0 0h77v82H0z" fill="none"></path></svg>