<?xml version="1.0" ?><!DOCTYPE svg  PUBLIC '-//W3C//DTD SVG 1.1//EN'  'http://www.w3.org/Graphics/SVG/1.1/DTD/svg11.dtd'><svg id="Lager_1" style="enable-background:new -265 388.9 64 64;" version="1.1" viewBox="-265 388.9 64 64" xml:space="preserve" xmlns="http://www.w3.org/2000/svg" xmlns:xlink="http://www.w3.org/1999/xlink"><path d="M-218.3,415.6h-9.3v-9.3c0-0.7-0.6-1.3-1.3-1.3h-8c-0.7,0-1.3,0.6-1.3,1.3v9.3h-9.3c-0.7,0-1.3,0.6-1.3,1.3v8  c0,0.7,0.6,1.3,1.3,1.3h9.3v9.3c0,0.7,0.6,1.3,1.3,1.3h8c0.7,0,1.3-0.6,1.3-1.3v-9.3h9.3c0.7,0,1.3-0.6,1.3-1.3v-8  C-217,416.2-217.6,415.6-218.3,415.6z"/></svg>